<?xml version="1.0" encoding="UTF-8"?>
<svg xmlns="http://www.w3.org/2000/svg"
     width="70mm" height="70mm" viewBox="0 0 70 70">
  <title>とうめいしっぽ パラメトリックパネル - Laser</title>
  <defs>
    <clipPath id="pattern-clip">
      <rect x="3" y="3" width="64" height="64"/>
    </clipPath>
  </defs>
  <g id="grain" opacity="0.5">
    <path d="M-114.55,92.18 L-102.35,-47.28" fill="none" stroke="#2c261e" stroke-width="0.085" opacity="0.150"/>
    <path d="M-104.99,93.02 L-92.79,-46.45" fill="none" stroke="#2c261e" stroke-width="0.085" opacity="0.150"/>
    <path d="M-95.43,93.86 L-83.22,-45.61" fill="none" stroke="#2c261e" stroke-width="0.085" opacity="0.150"/>
    <path d="M-85.86,94.69 L-73.66,-44.77" fill="none" stroke="#2c261e" stroke-width="0.085" opacity="0.150"/>
    <path d="M-76.30,95.53 L-64.10,-43.94" fill="none" stroke="#2c261e" stroke-width="0.085" opacity="0.150"/>
    <path d="M-66.74,96.37 L-54.53,-43.10" fill="none" stroke="#2c261e" stroke-width="0.085" opacity="0.150"/>
    <path d="M-57.17,97.20 L-44.97,-42.26" fill="none" stroke="#2c261e" stroke-width="0.085" opacity="0.150"/>
    <path d="M-47.61,98.04 L-35.41,-41.43" fill="none" stroke="#2c261e" stroke-width="0.085" opacity="0.150"/>
    <path d="M-38.05,98.88 L-25.84,-40.59" fill="none" stroke="#2c261e" stroke-width="0.085" opacity="0.150"/>
    <path d="M-28.48,99.71 L-16.28,-39.75" fill="none" stroke="#2c261e" stroke-width="0.085" opacity="0.150"/>
    <path d="M-18.92,100.55 L-6.72,-38.92" fill="none" stroke="#2c261e" stroke-width="0.085" opacity="0.150"/>
    <path d="M-9.35,101.39 L2.85,-38.08" fill="none" stroke="#2c261e" stroke-width="0.085" opacity="0.150"/>
    <path d="M0.21,102.22 L12.41,-37.24" fill="none" stroke="#2c261e" stroke-width="0.085" opacity="0.150"/>
    <path d="M9.77,103.06 L21.97,-36.41" fill="none" stroke="#2c261e" stroke-width="0.085" opacity="0.150"/>
    <path d="M19.34,103.90 L31.54,-35.57" fill="none" stroke="#2c261e" stroke-width="0.085" opacity="0.150"/>
    <path d="M28.90,104.73 L41.10,-34.73" fill="none" stroke="#2c261e" stroke-width="0.085" opacity="0.150"/>
    <path d="M38.46,105.57 L50.66,-33.90" fill="none" stroke="#2c261e" stroke-width="0.085" opacity="0.150"/>
    <path d="M48.03,106.41 L60.23,-33.06" fill="none" stroke="#2c261e" stroke-width="0.085" opacity="0.150"/>
    <path d="M57.59,107.24 L69.79,-32.22" fill="none" stroke="#2c261e" stroke-width="0.085" opacity="0.150"/>
    <path d="M67.15,108.08 L79.35,-31.39" fill="none" stroke="#2c261e" stroke-width="0.085" opacity="0.150"/>
    <path d="M76.72,108.92 L88.92,-30.55" fill="none" stroke="#2c261e" stroke-width="0.085" opacity="0.150"/>
    <path d="M86.28,109.75 L98.48,-29.71" fill="none" stroke="#2c261e" stroke-width="0.085" opacity="0.150"/>
    <path d="M95.84,110.59 L108.05,-28.88" fill="none" stroke="#2c261e" stroke-width="0.085" opacity="0.150"/>
    <path d="M105.41,111.43 L117.61,-28.04" fill="none" stroke="#2c261e" stroke-width="0.085" opacity="0.150"/>
    <path d="M114.97,112.26 L127.17,-27.20" fill="none" stroke="#2c261e" stroke-width="0.085" opacity="0.150"/>
    <path d="M124.53,113.10 L136.74,-26.37" fill="none" stroke="#2c261e" stroke-width="0.085" opacity="0.150"/>
    <path d="M134.10,113.94 L146.30,-25.53" fill="none" stroke="#2c261e" stroke-width="0.085" opacity="0.150"/>
    <path d="M143.66,114.77 L155.86,-24.69" fill="none" stroke="#2c261e" stroke-width="0.085" opacity="0.150"/>
    <path d="M153.22,115.61 L165.43,-23.86" fill="none" stroke="#2c261e" stroke-width="0.085" opacity="0.150"/>
    <path d="M162.79,116.45 L174.99,-23.02" fill="none" stroke="#2c261e" stroke-width="0.085" opacity="0.150"/>
  </g>

  <g id="pattern" clip-path="url(#pattern-clip)">
    <circle cx="32.75" cy="36.76" r="0.84" fill="#2c261e"/>
    <circle cx="35.73" cy="31.25" r="0.84" fill="#2c261e"/>
    <path d="M32.78,36.66 L35.73,31.25" fill="none" stroke="#2c261e" stroke-width="0.085"/>
    <circle cx="37.56" cy="39.19" r="0.84" fill="#2c261e"/>
    <path d="M35.73,31.15 L37.56,39.19" fill="none" stroke="#2c261e" stroke-width="0.060"/>
    <circle cx="29.73" cy="33.61" r="0.84" fill="#2c261e"/>
    <path d="M37.52,39.08 L29.73,33.61" fill="none" stroke="#2c261e" stroke-width="0.060"/>
    <circle cx="40.62" cy="32.33" r="0.84" fill="#2c261e"/>
    <path d="M29.67,33.49 L40.62,32.33" fill="none" stroke="#2c261e" stroke-width="0.060"/>
    <circle cx="32.68" cy="41.45" r="0.84" fill="#2c261e"/>
    <path d="M40.53,32.21 L32.68,41.45" fill="none" stroke="#2c261e" stroke-width="0.060"/>
    <circle cx="32.36" cy="28.27" r="0.84" fill="#2c261e"/>
    <path d="M32.59,41.35 L32.36,28.27" fill="none" stroke="#2c261e" stroke-width="0.060"/>
    <circle cx="42.10" cy="38.47" r="0.84" fill="#2c261e"/>
    <path d="M32.29,28.19 L42.10,38.47" fill="none" stroke="#2c261e" stroke-width="0.060"/>
    <circle cx="27.06" cy="37.42" r="0.84" fill="#2c261e"/>
    <path d="M42.06,38.41 L27.06,37.42" fill="none" stroke="#2c261e" stroke-width="0.060"/>
    <circle cx="39.48" cy="27.49" r="0.84" fill="#2c261e"/>
    <path d="M27.04,37.39 L39.48,27.49" fill="none" stroke="#2c261e" stroke-width="0.060"/>
    <circle cx="36.83" cy="43.99" r="0.84" fill="#2c261e"/>
    <path d="M39.49,27.48 L36.83,43.99" fill="none" stroke="#2c261e" stroke-width="0.060"/>
    <circle cx="27.16" cy="29.36" r="0.84" fill="#2c261e"/>
    <path d="M36.86,44.00 L27.16,29.36" fill="none" stroke="#2c261e" stroke-width="0.060"/>
    <circle cx="44.86" cy="33.82" r="0.84" fill="#2c261e"/>
    <path d="M27.22,29.38 L44.86,33.82" fill="none" stroke="#2c261e" stroke-width="0.060"/>
    <circle cx="28.15" cy="42.82" r="0.84" fill="#2c261e"/>
    <path d="M44.92,33.84 L28.15,42.82" fill="none" stroke="#2c261e" stroke-width="0.060"/>
    <circle cx="34.63" cy="24.26" r="0.84" fill="#2c261e"/>
    <path d="M28.22,42.84 L34.63,24.26" fill="none" stroke="#2c261e" stroke-width="0.060"/>
    <circle cx="42.66" cy="42.95" r="0.84" fill="#2c261e"/>
    <path d="M34.69,24.27 L42.66,42.95" fill="none" stroke="#2c261e" stroke-width="0.060"/>
    <circle cx="23.55" cy="34.33" r="0.84" fill="#2c261e"/>
    <path d="M42.72,42.95 L23.55,34.33" fill="none" stroke="#2c261e" stroke-width="0.060"/>
    <circle cx="44.07" cy="27.58" r="0.84" fill="#2c261e"/>
    <path d="M23.60,34.33 L44.07,27.58" fill="none" stroke="#2c261e" stroke-width="0.060"/>
    <circle cx="33.18" cy="46.94" r="0.84" fill="#2c261e"/>
    <path d="M44.12,27.58 L33.18,46.94" fill="none" stroke="#2c261e" stroke-width="0.060"/>
    <circle cx="27.98" cy="24.72" r="0.84" fill="#2c261e"/>
    <path d="M33.24,46.95 L27.98,24.72" fill="none" stroke="#2c261e" stroke-width="0.060"/>
    <circle cx="47.26" cy="37.90" r="0.84" fill="#2c261e"/>
    <path d="M28.05,24.74 L47.26,37.90" fill="none" stroke="#2c261e" stroke-width="0.060"/>
    <circle cx="23.53" cy="41.28" r="0.84" fill="#2c261e"/>
    <path d="M47.35,37.94 L23.53,41.28" fill="none" stroke="#2c261e" stroke-width="0.060"/>
    <circle cx="39.06" cy="22.36" r="0.84" fill="#2c261e"/>
    <path d="M23.64,41.32 L39.06,22.36" fill="none" stroke="#2c261e" stroke-width="0.060"/>
    <circle cx="40.39" cy="47.38" r="0.84" fill="#2c261e"/>
    <path d="M39.20,22.39 L40.39,47.38" fill="none" stroke="#2c261e" stroke-width="0.060"/>
    <circle cx="22.14" cy="29.50" r="0.84" fill="#2c261e"/>
    <path d="M40.54,47.39 L22.14,29.50" fill="none" stroke="#2c261e" stroke-width="0.060"/>
    <circle cx="48.22" cy="30.41" r="0.84" fill="#2c261e"/>
    <path d="M22.29,29.49 L48.22,30.41" fill="none" stroke="#2c261e" stroke-width="0.060"/>
    <circle cx="28.03" cy="47.69" r="0.84" fill="#2c261e"/>
    <path d="M48.35,30.39 L28.03,47.69" fill="none" stroke="#2c261e" stroke-width="0.060"/>
    <circle cx="31.37" cy="20.81" r="0.84" fill="#2c261e"/>
    <path d="M28.14,47.66 L31.37,20.81" fill="none" stroke="#2c261e" stroke-width="0.060"/>
    <circle cx="47.41" cy="43.24" r="0.84" fill="#2c261e"/>
    <path d="M31.44,20.78 L47.41,43.24" fill="none" stroke="#2c261e" stroke-width="0.060"/>
    <circle cx="20.01" cy="37.37" r="0.84" fill="#2c261e"/>
    <path d="M47.45,43.23 L20.01,37.37" fill="none" stroke="#2c261e" stroke-width="0.060"/>
    <circle cx="44.62" cy="22.89" r="0.84" fill="#2c261e"/>
    <path d="M20.01,37.38 L44.62,22.89" fill="none" stroke="#2c261e" stroke-width="0.060"/>
    <circle cx="36.13" cy="50.57" r="0.84" fill="#2c261e"/>
    <path d="M44.60,22.92 L36.13,50.57" fill="none" stroke="#2c261e" stroke-width="0.060"/>
    <circle cx="23.49" cy="23.94" r="0.84" fill="#2c261e"/>
    <path d="M36.10,50.63 L23.49,23.94" fill="none" stroke="#2c261e" stroke-width="0.060"/>
    <circle cx="51.16" cy="35.15" r="0.84" fill="#2c261e"/>
    <path d="M23.45,24.05 L51.16,35.15" fill="none" stroke="#2c261e" stroke-width="0.060"/>
    <circle cx="22.70" cy="45.72" r="0.84" fill="#2c261e"/>
    <path d="M51.15,35.28 L22.70,45.72" fill="none" stroke="#2c261e" stroke-width="0.060"/>
    <circle cx="36.69" cy="18.34" r="0.84" fill="#2c261e"/>
    <path d="M22.72,45.86 L36.69,18.34" fill="none" stroke="#2c261e" stroke-width="0.060"/>
    <circle cx="44.94" cy="48.45" r="0.84" fill="#2c261e"/>
    <path d="M36.74,18.47 L44.94,48.45" fill="none" stroke="#2c261e" stroke-width="0.060"/>
    <circle cx="18.15" cy="31.66" r="0.84" fill="#2c261e"/>
    <path d="M45.02,48.55 L18.15,31.66" fill="none" stroke="#2c261e" stroke-width="0.060"/>
    <circle cx="49.68" cy="25.93" r="0.84" fill="#2c261e"/>
    <path d="M18.24,31.73 L49.68,25.93" fill="none" stroke="#2c261e" stroke-width="0.060"/>
    <circle cx="30.10" cy="51.83" r="0.84" fill="#2c261e"/>
    <path d="M49.76,25.97 L30.10,51.83" fill="none" stroke="#2c261e" stroke-width="0.060"/>
    <circle cx="27.07" cy="19.13" r="0.84" fill="#2c261e"/>
    <path d="M30.16,51.84 L27.07,19.13" fill="none" stroke="#2c261e" stroke-width="0.060"/>
    <circle cx="51.74" cy="41.49" r="0.84" fill="#2c261e"/>
    <path d="M27.10,19.12 L51.74,41.49" fill="none" stroke="#2c261e" stroke-width="0.060"/>
    <circle cx="18.07" cy="41.68" r="0.84" fill="#2c261e"/>
    <path d="M51.76,41.45 L18.07,41.68" fill="none" stroke="#2c261e" stroke-width="0.060"/>
    <circle cx="43.05" cy="18.54" r="0.84" fill="#2c261e"/>
    <path d="M18.09,41.64 L43.05,18.54" fill="none" stroke="#2c261e" stroke-width="0.060"/>
    <circle cx="40.20" cy="52.87" r="0.84" fill="#2c261e"/>
    <path d="M43.08,18.49 L40.20,52.87" fill="none" stroke="#2c261e" stroke-width="0.060"/>
    <circle cx="18.84" cy="25.32" r="0.84" fill="#2c261e"/>
    <path d="M40.25,52.83 L18.84,25.32" fill="none" stroke="#2c261e" stroke-width="0.060"/>
    <circle cx="53.53" cy="31.26" r="0.84" fill="#2c261e"/>
    <path d="M18.91,25.29 L53.53,31.26" fill="none" stroke="#2c261e" stroke-width="0.060"/>
    <circle cx="23.59" cy="50.52" r="0.84" fill="#2c261e"/>
    <path d="M53.62,31.25 L23.59,50.52" fill="none" stroke="#2c261e" stroke-width="0.060"/>
    <circle cx="32.76" cy="15.74" r="0.84" fill="#2c261e"/>
    <path d="M23.69,50.51 L32.76,15.74" fill="none" stroke="#2c261e" stroke-width="0.060"/>
    <circle cx="49.69" cy="47.91" r="0.84" fill="#2c261e"/>
    <path d="M32.85,15.73 L49.69,47.91" fill="none" stroke="#2c261e" stroke-width="0.060"/>
    <circle cx="15.17" cy="35.51" r="0.84" fill="#2c261e"/>
    <path d="M49.76,47.89 L15.17,35.51" fill="none" stroke="#2c261e" stroke-width="0.060"/>
    <circle cx="49.38" cy="21.21" r="0.84" fill="#2c261e"/>
    <path d="M15.22,35.47 L49.38,21.21" fill="none" stroke="#2c261e" stroke-width="0.060"/>
    <circle cx="33.71" cy="55.19" r="0.84" fill="#2c261e"/>
    <path d="M49.41,21.16 L33.71,55.19" fill="none" stroke="#2c261e" stroke-width="0.060"/>
    <circle cx="22.25" cy="19.19" r="0.84" fill="#2c261e"/>
    <path d="M33.71,55.13 L22.25,19.19" fill="none" stroke="#2c261e" stroke-width="0.060"/>
    <circle cx="55.35" cy="38.13" r="0.84" fill="#2c261e"/>
    <path d="M22.23,19.14 L55.35,38.13" fill="none" stroke="#2c261e" stroke-width="0.060"/>
    <circle cx="17.83" cy="46.54" r="0.84" fill="#2c261e"/>
    <path d="M55.31,38.10 L17.83,46.54" fill="none" stroke="#2c261e" stroke-width="0.060"/>
    <circle cx="40.00" cy="14.65" r="0.84" fill="#2c261e"/>
    <path d="M17.78,46.54 L40.00,14.65" fill="none" stroke="#2c261e" stroke-width="0.060"/>
    <circle cx="45.22" cy="53.43" r="0.84" fill="#2c261e"/>
    <path d="M39.95,14.68 L45.22,53.43" fill="none" stroke="#2c261e" stroke-width="0.060"/>
    <circle cx="14.90" cy="28.10" r="0.84" fill="#2c261e"/>
    <path d="M45.17,53.49 L14.90,28.10" fill="none" stroke="#2c261e" stroke-width="0.060"/>
    <circle cx="54.69" cy="26.25" r="0.84" fill="#2c261e"/>
    <path d="M14.84,28.18 L54.69,26.25" fill="none" stroke="#2c261e" stroke-width="0.060"/>
    <circle cx="26.35" cy="54.71" r="0.84" fill="#2c261e"/>
    <path d="M54.64,26.34 L26.35,54.71" fill="none" stroke="#2c261e" stroke-width="0.060"/>
    <circle cx="28.04" cy="14.25" r="0.84" fill="#2c261e"/>
    <path d="M26.30,54.81 L28.04,14.25" fill="none" stroke="#2c261e" stroke-width="0.060"/>
    <circle cx="54.36" cy="45.49" r="0.84" fill="#2c261e"/>
    <path d="M27.98,14.35 L54.36,45.49" fill="none" stroke="#2c261e" stroke-width="0.060"/>
    <circle cx="13.56" cy="40.22" r="0.84" fill="#2c261e"/>
    <path d="M54.28,45.57 L13.56,40.22" fill="none" stroke="#2c261e" stroke-width="0.060"/>
    <circle cx="47.51" cy="16.41" r="0.84" fill="#2c261e"/>
    <path d="M13.47,40.27 L47.51,16.41" fill="none" stroke="#2c261e" stroke-width="0.060"/>
    <circle cx="38.53" cy="57.27" r="0.84" fill="#2c261e"/>
    <path d="M47.41,16.43 L38.53,57.27" fill="none" stroke="#2c261e" stroke-width="0.060"/>
    <circle cx="17.43" cy="20.86" r="0.84" fill="#2c261e"/>
    <path d="M38.42,57.25 L17.43,20.86" fill="none" stroke="#2c261e" stroke-width="0.060"/>
    <circle cx="57.90" cy="33.59" r="0.84" fill="#2c261e"/>
    <path d="M17.32,20.80 L57.90,33.59" fill="none" stroke="#2c261e" stroke-width="0.060"/>
    <circle cx="19.17" cy="51.70" r="0.84" fill="#2c261e"/>
    <path d="M57.80,33.52 L19.17,51.70" fill="none" stroke="#2c261e" stroke-width="0.060"/>
    <circle cx="35.61" cy="11.91" r="0.84" fill="#2c261e"/>
    <path d="M19.08,51.62 L35.61,11.91" fill="none" stroke="#2c261e" stroke-width="0.060"/>
    <circle cx="50.45" cy="52.64" r="0.84" fill="#2c261e"/>
    <path d="M35.52,11.83 L50.45,52.64" fill="none" stroke="#2c261e" stroke-width="0.060"/>
    <circle cx="11.69" cy="32.48" r="0.84" fill="#2c261e"/>
    <path d="M50.38,52.56 L11.69,32.48" fill="none" stroke="#2c261e" stroke-width="0.060"/>
    <circle cx="54.13" cy="21.05" r="0.84" fill="#2c261e"/>
    <path d="M11.63,32.42 L54.13,21.05" fill="none" stroke="#2c261e" stroke-width="0.060"/>
    <circle cx="30.31" cy="58.36" r="0.84" fill="#2c261e"/>
    <path d="M54.11,21.02 L30.31,58.36" fill="none" stroke="#2c261e" stroke-width="0.060"/>
    <circle cx="22.54" cy="14.43" r="0.84" fill="#2c261e"/>
    <path d="M30.32,58.37 L22.54,14.43" fill="none" stroke="#2c261e" stroke-width="0.060"/>
    <circle cx="58.11" cy="41.73" r="0.84" fill="#2c261e"/>
    <path d="M22.58,14.47 L58.11,41.73" fill="none" stroke="#2c261e" stroke-width="0.060"/>
    <circle cx="13.09" cy="45.64" r="0.84" fill="#2c261e"/>
    <path d="M58.18,41.79 L13.09,45.64" fill="none" stroke="#2c261e" stroke-width="0.060"/>
    <circle cx="43.81" cy="12.14" r="0.84" fill="#2c261e"/>
    <path d="M13.18,45.72 L43.81,12.14" fill="none" stroke="#2c261e" stroke-width="0.060"/>
    <circle cx="43.78" cy="57.92" r="0.84" fill="#2c261e"/>
    <path d="M43.91,12.21 L43.78,57.92" fill="none" stroke="#2c261e" stroke-width="0.060"/>
    <circle cx="12.70" cy="23.97" r="0.84" fill="#2c261e"/>
    <path d="M43.88,57.97 L12.70,23.97" fill="none" stroke="#2c261e" stroke-width="0.060"/>
    <circle cx="58.86" cy="28.07" r="0.84" fill="#2c261e"/>
    <path d="M12.80,23.99 L58.86,28.07" fill="none" stroke="#2c261e" stroke-width="0.060"/>
    <circle cx="21.84" cy="56.44" r="0.84" fill="#2c261e"/>
    <path d="M58.95,28.08 L21.84,56.44" fill="none" stroke="#2c261e" stroke-width="0.060"/>
    <circle cx="30.05" cy="10.28" r="0.84" fill="#2c261e"/>
    <path d="M21.93,56.42 L30.05,10.28" fill="none" stroke="#2c261e" stroke-width="0.060"/>
    <circle cx="55.35" cy="50.13" r="0.84" fill="#2c261e"/>
    <path d="M30.14,10.23 L55.35,50.13" fill="none" stroke="#2c261e" stroke-width="0.060"/>
    <circle cx="9.52" cy="37.78" r="0.84" fill="#2c261e"/>
    <path d="M55.44,50.07 L9.52,37.78" fill="none" stroke="#2c261e" stroke-width="0.060"/>
    <circle cx="51.92" cy="15.79" r="0.84" fill="#2c261e"/>
    <path d="M9.60,37.71 L51.92,15.79" fill="none" stroke="#2c261e" stroke-width="0.060"/>
    <circle cx="35.41" cy="60.87" r="0.84" fill="#2c261e"/>
    <path d="M52.00,15.73 L35.41,60.87" fill="none" stroke="#2c261e" stroke-width="0.060"/>
    <circle cx="17.03" cy="16.17" r="0.84" fill="#2c261e"/>
    <path d="M35.48,60.84 L17.03,16.17" fill="none" stroke="#2c261e" stroke-width="0.060"/>
    <circle cx="61.03" cy="36.77" r="0.84" fill="#2c261e"/>
    <path d="M17.09,16.17 L61.03,36.77" fill="none" stroke="#2c261e" stroke-width="0.060"/>
    <circle cx="14.41" cy="51.33" r="0.84" fill="#2c261e"/>
    <path d="M61.08,36.80 L14.41,51.33" fill="none" stroke="#2c261e" stroke-width="0.060"/>
    <circle cx="39.09" cy="8.83" r="0.84" fill="#2c261e"/>
    <path d="M14.44,51.38 L39.09,8.83" fill="none" stroke="#2c261e" stroke-width="0.060"/>
    <circle cx="49.66" cy="57.08" r="0.84" fill="#2c261e"/>
    <path d="M39.12,8.89 L49.66,57.08" fill="none" stroke="#2c261e" stroke-width="0.060"/>
    <circle cx="9.05" cy="28.49" r="0.84" fill="#2c261e"/>
    <path d="M49.68,57.15 L9.05,28.49" fill="none" stroke="#2c261e" stroke-width="0.060"/>
    <circle cx="58.59" cy="22.14" r="0.84" fill="#2c261e"/>
    <path d="M9.07,28.55 L58.59,22.14" fill="none" stroke="#2c261e" stroke-width="0.060"/>
    <circle cx="26.20" cy="60.52" r="0.84" fill="#2c261e"/>
    <path d="M58.60,22.18 L26.20,60.52" fill="none" stroke="#2c261e" stroke-width="0.060"/>
    <circle cx="24.17" cy="10.13" r="0.84" fill="#2c261e"/>
    <path d="M26.21,60.53 L24.17,10.13" fill="none" stroke="#2c261e" stroke-width="0.060"/>
    <circle cx="59.93" cy="46.15" r="0.84" fill="#2c261e"/>
    <path d="M24.17,10.11 L59.93,46.15" fill="none" stroke="#2c261e" stroke-width="0.060"/>
    <circle cx="9.01" cy="43.76" r="0.84" fill="#2c261e"/>
    <path d="M59.93,46.10 L9.01,43.76" fill="none" stroke="#2c261e" stroke-width="0.060"/>
    <circle cx="48.41" cy="10.96" r="0.84" fill="#2c261e"/>
    <path d="M8.99,43.70 L48.41,10.96" fill="none" stroke="#2c261e" stroke-width="0.060"/>
    <circle cx="41.51" cy="61.99" r="0.84" fill="#2c261e"/>
    <path d="M48.37,10.89 L41.51,61.99" fill="none" stroke="#2c261e" stroke-width="0.060"/>
    <circle cx="12.00" cy="19.45" r="0.84" fill="#2c261e"/>
    <path d="M41.45,61.94 L12.00,19.45" fill="none" stroke="#2c261e" stroke-width="0.060"/>
    <circle cx="62.77" cy="30.90" r="0.84" fill="#2c261e"/>
    <path d="M11.93,19.41 L62.77,30.90" fill="none" stroke="#2c261e" stroke-width="0.060"/>
    <circle cx="17.40" cy="56.81" r="0.84" fill="#2c261e"/>
    <path d="M62.68,30.89 L17.40,56.81" fill="none" stroke="#2c261e" stroke-width="0.060"/>
    <circle cx="33.43" cy="6.74" r="0.84" fill="#2c261e"/>
    <path d="M17.28,56.84 L33.43,6.74" fill="none" stroke="#2c261e" stroke-width="0.060"/>
    <circle cx="55.51" cy="54.66" r="0.84" fill="#2c261e"/>
    <path d="M33.31,6.80 L55.51,54.66" fill="none" stroke="#2c261e" stroke-width="0.060"/>
    <circle cx="6.58" cy="34.11" r="0.84" fill="#2c261e"/>
    <path d="M55.40,54.75 L6.58,34.11" fill="none" stroke="#2c261e" stroke-width="0.060"/>
    <circle cx="56.71" cy="16.13" r="0.84" fill="#2c261e"/>
    <path d="M6.49,34.21 L56.71,16.13" fill="none" stroke="#2c261e" stroke-width="0.060"/>
    <circle cx="31.71" cy="63.52" r="0.84" fill="#2c261e"/>
    <path d="M56.66,16.23 L31.71,63.52" fill="none" stroke="#2c261e" stroke-width="0.060"/>
    <circle cx="18.02" cy="11.52" r="0.84" fill="#2c261e"/>
    <path d="M31.69,63.60 L18.02,11.52" fill="none" stroke="#2c261e" stroke-width="0.060"/>
    <circle cx="63.42" cy="40.82" r="0.84" fill="#2c261e"/>
    <path d="M18.04,11.57 L63.42,40.82" fill="none" stroke="#2c261e" stroke-width="0.060"/>
    <circle cx="9.87" cy="49.99" r="0.84" fill="#2c261e"/>
    <path d="M63.46,40.85 L9.87,49.99" fill="none" stroke="#2c261e" stroke-width="0.060"/>
    <circle cx="43.28" cy="6.93" r="0.84" fill="#2c261e"/>
    <path d="M9.95,49.98 L43.28,6.93" fill="none" stroke="#2c261e" stroke-width="0.060"/>
    <circle cx="47.72" cy="61.55" r="0.84" fill="#2c261e"/>
    <path d="M43.39,6.91 L47.72,61.55" fill="none" stroke="#2c261e" stroke-width="0.060"/>
    <circle cx="7.36" cy="24.15" r="0.84" fill="#2c261e"/>
    <path d="M47.85,61.50 L7.36,24.15" fill="none" stroke="#2c261e" stroke-width="0.060"/>
    <circle cx="62.62" cy="24.49" r="0.84" fill="#2c261e"/>
    <path d="M7.50,24.09 L62.62,24.49" fill="none" stroke="#2c261e" stroke-width="0.060"/>
    <circle cx="21.49" cy="61.73" r="0.84" fill="#2c261e"/>
    <path d="M62.77,24.43 L21.49,61.73" fill="none" stroke="#2c261e" stroke-width="0.060"/>
    <circle cx="26.74" cy="6.22" r="0.84" fill="#2c261e"/>
    <path d="M21.61,61.67 L26.74,6.22" fill="none" stroke="#2c261e" stroke-width="0.060"/>
    <circle cx="60.58" cy="50.85" r="0.84" fill="#2c261e"/>
    <path d="M26.82,6.17 L60.58,50.85" fill="none" stroke="#2c261e" stroke-width="0.060"/>
    <circle cx="5.32" cy="40.72" r="0.84" fill="#2c261e"/>
    <path d="M60.61,50.80 L5.32,40.72" fill="none" stroke="#2c261e" stroke-width="0.060"/>
    <circle cx="53.17" cy="10.71" r="0.84" fill="#2c261e"/>
    <path d="M5.31,40.67 L53.17,10.71" fill="none" stroke="#2c261e" stroke-width="0.060"/>
    <circle cx="38.14" cy="65.38" r="0.84" fill="#2c261e"/>
    <path d="M53.13,10.66 L38.14,65.38" fill="none" stroke="#2c261e" stroke-width="0.060"/>
    <circle cx="12.24" cy="14.71" r="0.84" fill="#2c261e"/>
    <path d="M38.08,65.32 L12.24,14.71" fill="none" stroke="#2c261e" stroke-width="0.060"/>
    <circle cx="65.82" cy="34.66" r="0.84" fill="#2c261e"/>
    <path d="M12.15,14.64 L65.82,34.66" fill="none" stroke="#2c261e" stroke-width="0.060"/>
    <circle cx="12.64" cy="56.24" r="0.84" fill="#2c261e"/>
    <path d="M65.72,34.58 L12.64,56.24" fill="none" stroke="#2c261e" stroke-width="0.060"/>
    <circle cx="37.38" cy="4.20" r="0.84" fill="#2c261e"/>
    <path d="M12.54,56.15 L37.38,4.20" fill="none" stroke="#2c261e" stroke-width="0.060"/>
    <circle cx="54.34" cy="59.51" r="0.84" fill="#2c261e"/>
    <path d="M37.28,4.11 L54.34,59.51" fill="none" stroke="#2c261e" stroke-width="0.060"/>
    <circle cx="4.25" cy="30.06" r="0.84" fill="#2c261e"/>
    <path d="M54.26,59.42 L4.25,30.06" fill="none" stroke="#2c261e" stroke-width="0.060"/>
    <circle cx="61.27" cy="17.88" r="0.84" fill="#2c261e"/>
    <path d="M4.18,29.98 L61.27,17.88" fill="none" stroke="#2c261e" stroke-width="0.060"/>
    <circle cx="27.30" cy="65.54" r="0.84" fill="#2c261e"/>
    <path d="M61.21,17.82 L27.30,65.54" fill="none" stroke="#2c261e" stroke-width="0.060"/>
    <circle cx="20.11" cy="7.20" r="0.84" fill="#2c261e"/>
    <path d="M27.25,65.50 L20.11,7.20" fill="none" stroke="#2c261e" stroke-width="0.060"/>
    <circle cx="64.99" cy="45.48" r="0.84" fill="#2c261e"/>
    <path d="M20.06,7.17 L64.99,45.48" fill="none" stroke="#2c261e" stroke-width="0.060"/>
    <circle cx="5.80" cy="47.54" r="0.84" fill="#2c261e"/>
    <path d="M64.93,45.47 L5.80,47.54" fill="none" stroke="#2c261e" stroke-width="0.060"/>
    <circle cx="48.18" cy="5.86" r="0.84" fill="#2c261e"/>
    <path d="M5.75,47.55 L48.18,5.86" fill="none" stroke="#2c261e" stroke-width="0.060"/>
    <circle cx="45.02" cy="65.44" r="0.84" fill="#2c261e"/>
    <path d="M48.15,5.88 L45.02,65.44" fill="none" stroke="#2c261e" stroke-width="0.060"/>
    <circle cx="6.90" cy="19.21" r="0.84" fill="#2c261e"/>
    <path d="M45.02,65.47 L6.90,19.21" fill="none" stroke="#2c261e" stroke-width="0.060"/>
    <circle cx="66.40" cy="27.61" r="0.84" fill="#2c261e"/>
    <path d="M6.93,19.24 L66.40,27.61" fill="none" stroke="#2c261e" stroke-width="0.060"/>
    <circle cx="16.63" cy="61.78" r="0.84" fill="#2c261e"/>
    <path d="M66.46,27.63 L16.63,61.78" fill="none" stroke="#2c261e" stroke-width="0.060"/>
    <circle cx="30.28" cy="2.80" r="0.84" fill="#2c261e"/>
    <path d="M16.71,61.78 L30.28,2.80" fill="none" stroke="#2c261e" stroke-width="0.060"/>
    <circle cx="60.16" cy="55.74" r="0.84" fill="#2c261e"/>
    <path d="M30.38,2.78 L60.16,55.74" fill="none" stroke="#2c261e" stroke-width="0.060"/>
    <circle cx="2.18" cy="36.84" r="0.84" fill="#2c261e"/>
    <path d="M60.26,55.71 L2.18,36.84" fill="none" stroke="#2c261e" stroke-width="0.060"/>
    <circle cx="57.93" cy="11.53" r="0.84" fill="#2c261e"/>
    <path d="M2.27,36.80 L57.93,11.53" fill="none" stroke="#2c261e" stroke-width="0.060"/>
    <circle cx="33.88" cy="68.04" r="0.84" fill="#2c261e"/>
    <path d="M58.00,11.48 L33.88,68.04" fill="none" stroke="#2c261e" stroke-width="0.060"/>
    <circle cx="13.42" cy="9.89" r="0.84" fill="#2c261e"/>
    <path d="M33.93,68.00 L13.42,9.89" fill="none" stroke="#2c261e" stroke-width="0.060"/>
    <circle cx="68.04" cy="38.99" r="0.84" fill="#2c261e"/>
    <path d="M13.43,9.85 L68.04,38.99" fill="none" stroke="#2c261e" stroke-width="0.060"/>
    <circle cx="7.95" cy="54.41" r="0.84" fill="#2c261e"/>
    <path d="M68.01,38.98 L7.95,54.41" fill="none" stroke="#2c261e" stroke-width="0.060"/>
    <circle cx="42.00" cy="2.21" r="0.84" fill="#2c261e"/>
    <path d="M7.88,54.43 L42.00,2.21" fill="none" stroke="#2c261e" stroke-width="0.060"/>
    <circle cx="52.20" cy="63.88" r="0.84" fill="#2c261e"/>
    <path d="M41.90,2.24 L52.20,63.88" fill="none" stroke="#2c261e" stroke-width="0.060"/>
    <circle cx="2.85" cy="25.16" r="0.84" fill="#2c261e"/>
    <path d="M52.10,63.91 L2.85,25.16" fill="none" stroke="#2c261e" stroke-width="0.060"/>
    <circle cx="65.59" cy="20.39" r="0.84" fill="#2c261e"/>
    <path d="M2.75,25.19 L65.59,20.39" fill="none" stroke="#2c261e" stroke-width="0.060"/>
    <circle cx="22.39" cy="66.49" r="0.84" fill="#2c261e"/>
    <path d="M65.50,20.40 L22.39,66.49" fill="none" stroke="#2c261e" stroke-width="0.060"/>
    <circle cx="23.08" cy="3.17" r="0.84" fill="#2c261e"/>
    <path d="M22.33,66.48 L23.08,3.17" fill="none" stroke="#2c261e" stroke-width="0.060"/>
    <circle cx="65.46" cy="50.55" r="0.84" fill="#2c261e"/>
    <path d="M23.04,3.12 L65.46,50.55" fill="none" stroke="#2c261e" stroke-width="0.060"/>
    <circle cx="1.95" cy="44.29" r="0.84" fill="#2c261e"/>
    <path d="M65.45,50.48 L1.95,44.29" fill="none" stroke="#2c261e" stroke-width="0.060"/>
    <circle cx="53.13" cy="5.96" r="0.84" fill="#2c261e"/>
    <path d="M1.98,44.18 L53.13,5.96" fill="none" stroke="#2c261e" stroke-width="0.060"/>
    <circle cx="41.20" cy="69.05" r="0.84" fill="#2c261e"/>
    <path d="M53.20,5.83 L41.20,69.05" fill="none" stroke="#2c261e" stroke-width="0.060"/>
    <circle cx="7.23" cy="14.33" r="0.84" fill="#2c261e"/>
    <path d="M41.30,68.91 L7.23,14.33" fill="none" stroke="#2c261e" stroke-width="0.060"/>
    <circle cx="69.43" cy="31.79" r="0.84" fill="#2c261e"/>
    <path d="M7.36,14.19 L69.43,31.79" fill="none" stroke="#2c261e" stroke-width="0.060"/>
    <circle cx="11.59" cy="61.00" r="0.84" fill="#2c261e"/>
    <path d="M69.55,31.66 L11.59,61.00" fill="none" stroke="#2c261e" stroke-width="0.060"/>
    <circle cx="34.60" cy="0.17" r="0.84" fill="#2c261e"/>
    <path d="M11.70,60.88 L34.60,0.17" fill="none" stroke="#2c261e" stroke-width="0.060"/>
    <path d="M64.83,5.08 L65.26,4.66 L65.72,4.27 L66.21,3.93 L66.72,3.61 L67.26,3.34 L67.81,3.11 L68.38,2.91 L68.96,2.76 L69.54,2.64" fill="none" stroke="#2c261e" stroke-width="0.085" opacity="0.070"/>
    <path d="M54.82,16.87 L54.34,16.51 L53.88,16.13 L53.44,15.72 L53.02,15.29 L52.64,14.83 L52.29,14.34 L51.98,13.83 L51.71,13.29 L51.49,12.73 L51.33,12.16 L51.22,11.57 L51.16,10.97 L51.16,10.37 L51.22,9.77 L51.33,9.18 L51.48,8.60 L51.68,8.04 L51.92,7.49 L52.19,6.95 L52.50,6.43 L52.83,5.93 L53.18,5.45 L53.55,4.98 L53.95,4.52 L54.35,4.09 L54.78,3.66 L55.21,3.25 L55.66,2.85 L56.12,2.46 L56.59,2.09 L57.07,1.73 L57.56,1.39 L58.06,1.05 L58.57,0.73 L59.09,0.43 L59.61,0.14" fill="none" stroke="#2c261e" stroke-width="0.060" opacity="0.070"/>
    <path d="M64.54,48.70 L65.04,49.03 L65.53,49.39 L65.99,49.76 L66.45,50.16 L66.88,50.57 L67.29,51.01 L67.69,51.46 L68.06,51.93 L68.40,52.42 L68.72,52.93 L69.01,53.46 L69.26,54.00 L69.48,54.56 L69.66,55.13 L69.81,55.72 L69.91,56.31 L69.96,56.91 L69.97,57.50 L69.93,58.10 L69.84,58.70 L69.70,59.28 L69.51,59.85 L69.28,60.40 L69.01,60.94 L68.69,61.45 L68.33,61.93 L67.94,62.38 L67.52,62.81 L67.06,63.20 L66.59,63.57 L66.09,63.91 L65.58,64.22 L65.05,64.50 L64.51,64.76 L63.96,65.00 L63.40,65.22 L62.83,65.42 L62.26,65.60" fill="none" stroke="#2c261e" stroke-width="0.060" opacity="0.070"/>
    <path d="M65.99,48.33 L66.50,48.64 L67.00,48.97 L67.49,49.32 L67.97,49.68 L68.43,50.07 L68.88,50.47 L69.31,50.88 L69.73,51.31" fill="none" stroke="#2c261e" stroke-width="0.060" opacity="0.070"/>
    <path d="M0.00,0.00 L0.00,0.38 L0.40,0.35 L0.80,0.33 L1.20,0.31 L1.60,0.31 L2.00,0.31 L2.40,0.32 L2.80,0.34 L3.20,0.36 L3.60,0.39 L4.00,0.42 L4.40,0.46 L4.80,0.49 L5.20,0.52 L5.60,0.55 L6.00,0.57 L6.40,0.58 L6.80,0.58 L7.20,0.58 L7.60,0.56 L8.00,0.54 L8.40,0.51 L8.80,0.47 L9.20,0.42 L9.60,0.37 L10.00,0.32 L10.40,0.26 L10.80,0.21 L11.20,0.16 L11.60,0.11 L12.00,0.07 L12.40,0.03 L12.80,0.00 L13.20,-0.03 L13.60,-0.05 L14.00,-0.06 L14.40,-0.07 L14.80,-0.07 L15.20,-0.07 L15.60,-0.07 L16.00,-0.06 L16.40,-0.06 L16.80,-0.05 L17.20,-0.05 L17.60,-0.05 L18.00,-0.06 L18.40,-0.07 L18.80,-0.08 L19.20,-0.10 L19.60,-0.13 L20.00,-0.16 L20.40,-0.19 L20.80,-0.22 L21.20,-0.24 L21.60,-0.26 L22.00,-0.28 L22.40,-0.28 L22.80,-0.28 L23.20,-0.27 L23.60,-0.25 L24.00,-0.23 L24.40,-0.19 L24.80,-0.14 L25.20,-0.09 L25.60,-0.03 L26.00,0.03 L26.40,0.10 L26.80,0.16 L27.20,0.22 L27.60,0.28 L28.00,0.33 L28.40,0.37 L28.80,0.40 L29.20,0.43 L29.60,0.45 L30.00,0.46 L30.40,0.47 L30.80,0.48 L31.20,0.48 L31.60,0.47 L32.00,0.45 L32.40,0.43 L32.80,0.39 L33.20,0.34 L33.60,0.29 L34.00,0.24 L34.40,0.18 L34.80,0.12 L35.20,0.07 L35.60,0.02 L36.00,-0.02 L36.40,-0.05 L36.80,-0.07 L37.20,-0.09 L37.60,-0.09 L38.00,-0.08 L38.40,-0.06 L38.80,-0.04 L39.20,-0.01 L39.60,0.03 L40.00,0.07 L40.40,0.11 L40.80,0.15 L41.20,0.19 L41.60,0.22 L42.00,0.25 L42.40,0.28 L42.80,0.30 L43.20,0.32 L43.60,0.34 L44.00,0.35 L44.40,0.36 L44.80,0.36 L45.20,0.36 L45.60,0.36 L46.00,0.36 L46.40,0.35 L46.80,0.35 L47.20,0.35 L47.60,0.35 L48.00,0.36 L48.40,0.36 L48.80,0.38 L49.20,0.39 L49.60,0.42 L50.00,0.44 L50.40,0.46 L50.80,0.49 L51.20,0.52 L51.60,0.55 L52.00,0.59 L52.40,0.63 L52.80,0.68 L53.20,0.71 L53.60,0.75 L54.00,0.77 L54.40,0.78 L54.80,0.79 L55.20,0.78 L55.60,0.76 L56.00,0.73 L56.40,0.69 L56.80,0.63 L57.20,0.58 L57.60,0.51 L58.00,0.44 L58.40,0.38 L58.80,0.31 L59.20,0.25 L59.60,0.19 L60.00,0.13 L60.40,0.07 L60.80,0.02 L61.20,-0.03 L61.60,-0.07 L62.00,-0.11 L62.40,-0.13 L62.80,-0.14 L63.20,-0.14 L63.60,-0.12 L64.00,-0.10 L64.40,-0.07 L64.80,-0.04 L65.20,0.00 L65.60,0.05 L66.00,0.09 L66.40,0.13 L66.80,0.17 L67.20,0.20 L67.60,0.22 L68.00,0.23 L68.40,0.23 L68.80,0.22 L69.20,0.20 L69.60,0.17" fill="none" stroke="#2c261e" stroke-width="0.085" opacity="0.060"/>
    <path d="M0.00,2.40 L0.00,2.49 L0.40,2.47 L0.80,2.45 L1.20,2.45 L1.60,2.44 L2.00,2.45 L2.40,2.47 L2.80,2.49 L3.20,2.52 L3.60,2.55 L4.00,2.59 L4.40,2.63 L4.80,2.66 L5.20,2.69 L5.60,2.71 L6.00,2.73 L6.40,2.74 L6.80,2.74 L7.20,2.73 L7.60,2.71 L8.00,2.68 L8.40,2.65 L8.80,2.61 L9.20,2.56 L9.60,2.51 L10.00,2.46 L10.40,2.40 L10.80,2.35 L11.20,2.31 L11.60,2.27 L12.00,2.24 L12.40,2.21 L12.80,2.20 L13.20,2.20 L13.60,2.20 L14.00,2.21 L14.40,2.23 L14.80,2.26 L15.20,2.28 L15.60,2.31 L16.00,2.34 L16.40,2.37 L16.80,2.39 L17.20,2.41 L17.60,2.42 L18.00,2.43 L18.40,2.42 L18.80,2.41 L19.20,2.38 L19.60,2.35 L20.00,2.32 L20.40,2.29 L20.80,2.25 L21.20,2.22 L21.60,2.18 L22.00,2.14 L22.40,2.11 L22.80,2.07 L23.20,2.05 L23.60,2.03 L24.00,2.02 L24.40,2.01 L24.80,2.02 L25.20,2.04 L25.60,2.06 L26.00,2.09 L26.40,2.13 L26.80,2.18 L27.20,2.22 L27.60,2.27 L28.00,2.32 L28.40,2.36 L28.80,2.40 L29.20,2.43 L29.60,2.46 L30.00,2.49 L30.40,2.51 L30.80,2.54 L31.20,2.55 L31.60,2.56 L32.00,2.55 L32.40,2.54 L32.80,2.52 L33.20,2.49 L33.60,2.46 L34.00,2.42 L34.40,2.38 L34.80,2.34 L35.20,2.31 L35.60,2.27 L36.00,2.25 L36.40,2.23 L36.80,2.22 L37.20,2.22 L37.60,2.23 L38.00,2.25 L38.40,2.28 L38.80,2.32 L39.20,2.36 L39.60,2.41 L40.00,2.46 L40.40,2.51 L40.80,2.55 L41.20,2.60 L41.60,2.64 L42.00,2.68 L42.40,2.71 L42.80,2.73 L43.20,2.74 L43.60,2.74 L44.00,2.74 L44.40,2.73 L44.80,2.71 L45.20,2.68 L45.60,2.65 L46.00,2.62 L46.40,2.58 L46.80,2.55 L47.20,2.52 L47.60,2.50 L48.00,2.48 L48.40,2.47 L48.80,2.46 L49.20,2.47 L49.60,2.48 L50.00,2.49 L50.40,2.51 L50.80,2.53 L51.20,2.56 L51.60,2.59 L52.00,2.63 L52.40,2.68 L52.80,2.73 L53.20,2.78 L53.60,2.83 L54.00,2.87 L54.40,2.90 L54.80,2.93 L55.20,2.94 L55.60,2.94 L56.00,2.93 L56.40,2.91 L56.80,2.87 L57.20,2.83 L57.60,2.78 L58.00,2.72 L58.40,2.65 L58.80,2.59 L59.20,2.52 L59.60,2.46 L60.00,2.39 L60.40,2.33 L60.80,2.27 L61.20,2.22 L61.60,2.18 L62.00,2.16 L62.40,2.14 L62.80,2.14 L63.20,2.16 L63.60,2.18 L64.00,2.22 L64.40,2.26 L64.80,2.32 L65.20,2.37 L65.60,2.42 L66.00,2.48 L66.40,2.53 L66.80,2.56 L67.20,2.59 L67.60,2.61 L68.00,2.62 L68.40,2.61 L68.80,2.58 L69.20,2.55 L69.60,2.51" fill="none" stroke="#2c261e" stroke-width="0.036" opacity="0.060"/>
    <path d="M0.00,4.80 L0.00,4.50 L0.40,4.47 L0.80,4.46 L1.20,4.45 L1.60,4.45 L2.00,4.46 L2.40,4.48 L2.80,4.52 L3.20,4.55 L3.60,4.60 L4.00,4.65 L4.40,4.70 L4.80,4.75 L5.20,4.79 L5.60,4.83 L6.00,4.87 L6.40,4.89 L6.80,4.91 L7.20,4.92 L7.60,4.91 L8.00,4.89 L8.40,4.87 L8.80,4.83 L9.20,4.79 L9.60,4.75 L10.00,4.70 L10.40,4.65 L10.80,4.60 L11.20,4.57 L11.60,4.54 L12.00,4.52 L12.40,4.51 L12.80,4.52 L13.20,4.54 L13.60,4.57 L14.00,4.61 L14.40,4.65 L14.80,4.71 L15.20,4.76 L15.60,4.82 L16.00,4.88 L16.40,4.93 L16.80,4.98 L17.20,5.02 L17.60,5.04 L18.00,5.06 L18.40,5.06 L18.80,5.06 L19.20,5.04 L19.60,5.01 L20.00,4.98 L20.40,4.94 L20.80,4.91 L21.20,4.87 L21.60,4.82 L22.00,4.77 L22.40,4.72 L22.80,4.67 L23.20,4.61 L23.60,4.56 L24.00,4.52 L24.40,4.48 L24.80,4.44 L25.20,4.42 L25.60,4.40 L26.00,4.40 L26.40,4.40 L26.80,4.41 L27.20,4.43 L27.60,4.45 L28.00,4.47 L28.40,4.50 L28.80,4.53 L29.20,4.55 L29.60,4.58 L30.00,4.60 L30.40,4.63 L30.80,4.65 L31.20,4.66 L31.60,4.67 L32.00,4.67 L32.40,4.66 L32.80,4.65 L33.20,4.63 L33.60,4.60 L34.00,4.57 L34.40,4.54 L34.80,4.51 L35.20,4.49 L35.60,4.47 L36.00,4.45 L36.40,4.44 L36.80,4.44 L37.20,4.44 L37.60,4.45 L38.00,4.47 L38.40,4.50 L38.80,4.54 L39.20,4.58 L39.60,4.62 L40.00,4.67 L40.40,4.71 L40.80,4.76 L41.20,4.80 L41.60,4.83 L42.00,4.86 L42.40,4.88 L42.80,4.90 L43.20,4.91 L43.60,4.90 L44.00,4.89 L44.40,4.87 L44.80,4.85 L45.20,4.81 L45.60,4.78 L46.00,4.74 L46.40,4.70 L46.80,4.66 L47.20,4.63 L47.60,4.60 L48.00,4.58 L48.40,4.56 L48.80,4.56 L49.20,4.56 L49.60,4.57 L50.00,4.58 L50.40,4.60 L50.80,4.62 L51.20,4.64 L51.60,4.68 L52.00,4.73 L52.40,4.79 L52.80,4.86 L53.20,4.92 L53.60,4.99 L54.00,5.06 L54.40,5.12 L54.80,5.18 L55.20,5.22 L55.60,5.25 L56.00,5.27 L56.40,5.27 L56.80,5.27 L57.20,5.24 L57.60,5.21 L58.00,5.17 L58.40,5.12 L58.80,5.06 L59.20,5.00 L59.60,4.94 L60.00,4.88 L60.40,4.81 L60.80,4.75 L61.20,4.70 L61.60,4.66 L62.00,4.62 L62.40,4.59 L62.80,4.58 L63.20,4.57 L63.60,4.58 L64.00,4.59 L64.40,4.61 L64.80,4.63 L65.20,4.66 L65.60,4.69 L66.00,4.72 L66.40,4.74 L66.80,4.77 L67.20,4.78 L67.60,4.79 L68.00,4.78 L68.40,4.77 L68.80,4.74 L69.20,4.71 L69.60,4.67" fill="none" stroke="#2c261e" stroke-width="0.036" opacity="0.060"/>
    <path d="M0.00,7.20 L0.00,6.54 L0.40,6.51 L0.80,6.49 L1.20,6.47 L1.60,6.47 L2.00,6.48 L2.40,6.50 L2.80,6.53 L3.20,6.57 L3.60,6.63 L4.00,6.69 L4.40,6.76 L4.80,6.84 L5.20,6.91 L5.60,6.99 L6.00,7.06 L6.40,7.13 L6.80,7.19 L7.20,7.23 L7.60,7.27 L8.00,7.29 L8.40,7.31 L8.80,7.31 L9.20,7.29 L9.60,7.28 L10.00,7.25 L10.40,7.23 L10.80,7.21 L11.20,7.19 L11.60,7.17 L12.00,7.17 L12.40,7.16 L12.80,7.17 L13.20,7.18 L13.60,7.19 L14.00,7.21 L14.40,7.23 L14.80,7.25 L15.20,7.27 L15.60,7.29 L16.00,7.31 L16.40,7.33 L16.80,7.34 L17.20,7.35 L17.60,7.35 L18.00,7.34 L18.40,7.33 L18.80,7.32 L19.20,7.30 L19.60,7.27 L20.00,7.25 L20.40,7.22 L20.80,7.19 L21.20,7.16 L21.60,7.14 L22.00,7.10 L22.40,7.07 L22.80,7.05 L23.20,7.02 L23.60,7.00 L24.00,6.98 L24.40,6.97 L24.80,6.96 L25.20,6.95 L25.60,6.96 L26.00,6.96 L26.40,6.98 L26.80,6.99 L27.20,7.01 L27.60,7.03 L28.00,7.04 L28.40,7.06 L28.80,7.08 L29.20,7.09 L29.60,7.10 L30.00,7.11 L30.40,7.12 L30.80,7.13 L31.20,7.14 L31.60,7.14 L32.00,7.14 L32.40,7.14 L32.80,7.14 L33.20,7.13 L33.60,7.13 L34.00,7.12 L34.40,7.11 L34.80,7.10 L35.20,7.09 L35.60,7.08 L36.00,7.07 L36.40,7.07 L36.80,7.06 L37.20,7.06 L37.60,7.07 L38.00,7.07 L38.40,7.08 L38.80,7.09 L39.20,7.10 L39.60,7.12 L40.00,7.13 L40.40,7.15 L40.80,7.16 L41.20,7.18 L41.60,7.19 L42.00,7.20 L42.40,7.21 L42.80,7.22 L43.20,7.22 L43.60,7.22 L44.00,7.22 L44.40,7.21 L44.80,7.20 L45.20,7.19 L45.60,7.18 L46.00,7.16 L46.40,7.15 L46.80,7.13 L47.20,7.12 L47.60,7.10 L48.00,7.09 L48.40,7.08 L48.80,7.07 L49.20,7.07 L49.60,7.06 L50.00,7.06 L50.40,7.06 L50.80,7.06 L51.20,7.08 L51.60,7.10 L52.00,7.14 L52.40,7.19 L52.80,7.24 L53.20,7.31 L53.60,7.38 L54.00,7.45 L54.40,7.52 L54.80,7.58 L55.20,7.64 L55.60,7.69 L56.00,7.73 L56.40,7.76 L56.80,7.77 L57.20,7.77 L57.60,7.76 L58.00,7.74 L58.40,7.71 L58.80,7.67 L59.20,7.63 L59.60,7.58 L60.00,7.52 L60.40,7.47 L60.80,7.42 L61.20,7.36 L61.60,7.31 L62.00,7.25 L62.40,7.20 L62.80,7.15 L63.20,7.10 L63.60,7.06 L64.00,7.02 L64.40,6.98 L64.80,6.96 L65.20,6.94 L65.60,6.92 L66.00,6.92 L66.40,6.91 L66.80,6.91 L67.20,6.91 L67.60,6.92 L68.00,6.92 L68.40,6.92 L68.80,6.92 L69.20,6.91 L69.60,6.91" fill="none" stroke="#2c261e" stroke-width="0.036" opacity="0.060"/>
    <path d="M0.00,9.60 L0.00,9.05 L0.40,9.02 L0.80,8.98 L1.20,8.95 L1.60,8.93 L2.00,8.92 L2.40,8.91 L2.80,8.92 L3.20,8.94 L3.60,8.97 L4.00,9.01 L4.40,9.07 L4.80,9.13 L5.20,9.20 L5.60,9.28 L6.00,9.36 L6.40,9.44 L6.80,9.52 L7.20,9.59 L7.60,9.66 L8.00,9.72 L8.40,9.77 L8.80,9.80 L9.20,9.83 L9.60,9.84 L10.00,9.85 L10.40,9.86 L10.80,9.87 L11.20,9.88 L11.60,9.89 L12.00,9.89 L12.40,9.89 L12.80,9.89 L13.20,9.88 L13.60,9.87 L14.00,9.85 L14.40,9.83 L14.80,9.80 L15.20,9.77 L15.60,9.73 L16.00,9.69 L16.40,9.65 L16.80,9.61 L17.20,9.57 L17.60,9.53 L18.00,9.50 L18.40,9.47 L18.80,9.44 L19.20,9.42 L19.60,9.40 L20.00,9.38 L20.40,9.36 L20.80,9.35 L21.20,9.34 L21.60,9.33 L22.00,9.34 L22.40,9.35 L22.80,9.36 L23.20,9.38 L23.60,9.41 L24.00,9.45 L24.40,9.48 L24.80,9.52 L25.20,9.57 L25.60,9.61 L26.00,9.65 L26.40,9.69 L26.80,9.73 L27.20,9.76 L27.60,9.78 L28.00,9.80 L28.40,9.81 L28.80,9.81 L29.20,9.81 L29.60,9.80 L30.00,9.79 L30.40,9.78 L30.80,9.77 L31.20,9.77 L31.60,9.77 L32.00,9.77 L32.40,9.78 L32.80,9.79 L33.20,9.80 L33.60,9.81 L34.00,9.83 L34.40,9.85 L34.80,9.86 L35.20,9.87 L35.60,9.88 L36.00,9.88 L36.40,9.88 L36.80,9.88 L37.20,9.87 L37.60,9.86 L38.00,9.84 L38.40,9.82 L38.80,9.80 L39.20,9.77 L39.60,9.75 L40.00,9.72 L40.40,9.69 L40.80,9.66 L41.20,9.64 L41.60,9.62 L42.00,9.61 L42.40,9.60 L42.80,9.60 L43.20,9.61 L43.60,9.62 L44.00,9.63 L44.40,9.65 L44.80,9.68 L45.20,9.70 L45.60,9.72 L46.00,9.75 L46.40,9.77 L46.80,9.79 L47.20,9.80 L47.60,9.81 L48.00,9.81 L48.40,9.81 L48.80,9.80 L49.20,9.78 L49.60,9.76 L50.00,9.74 L50.40,9.72 L50.80,9.70 L51.20,9.69 L51.60,9.69 L52.00,9.70 L52.40,9.72 L52.80,9.74 L53.20,9.77 L53.60,9.81 L54.00,9.86 L54.40,9.90 L54.80,9.95 L55.20,9.99 L55.60,10.04 L56.00,10.07 L56.40,10.10 L56.80,10.12 L57.20,10.14 L57.60,10.14 L58.00,10.13 L58.40,10.12 L58.80,10.09 L59.20,10.06 L59.60,10.03 L60.00,9.99 L60.40,9.95 L60.80,9.91 L61.20,9.86 L61.60,9.80 L62.00,9.73 L62.40,9.66 L62.80,9.58 L63.20,9.51 L63.60,9.43 L64.00,9.36 L64.40,9.30 L64.80,9.24 L65.20,9.20 L65.60,9.17 L66.00,9.15 L66.40,9.14 L66.80,9.15 L67.20,9.16 L67.60,9.18 L68.00,9.22 L68.40,9.25 L68.80,9.29 L69.20,9.33 L69.60,9.37" fill="none" stroke="#2c261e" stroke-width="0.036" opacity="0.060"/>
    <path d="M0.00,12.00 L0.00,11.87 L0.40,11.83 L0.80,11.78 L1.20,11.74 L1.60,11.70 L2.00,11.66 L2.40,11.62 L2.80,11.59 L3.20,11.57 L3.60,11.55 L4.00,11.55 L4.40,11.55 L4.80,11.57 L5.20,11.59 L5.60,11.63 L6.00,11.67 L6.40,11.73 L6.80,11.78 L7.20,11.84 L7.60,11.89 L8.00,11.95 L8.40,12.00 L8.80,12.04 L9.20,12.08 L9.60,12.11 L10.00,12.14 L10.40,12.16 L10.80,12.19 L11.20,12.22 L11.60,12.24 L12.00,12.26 L12.40,12.28 L12.80,12.29 L13.20,12.30 L13.60,12.30 L14.00,12.29 L14.40,12.27 L14.80,12.25 L15.20,12.22 L15.60,12.19 L16.00,12.15 L16.40,12.11 L16.80,12.07 L17.20,12.03 L17.60,11.99 L18.00,11.96 L18.40,11.93 L18.80,11.90 L19.20,11.88 L19.60,11.87 L20.00,11.85 L20.40,11.84 L20.80,11.83 L21.20,11.83 L21.60,11.83 L22.00,11.84 L22.40,11.85 L22.80,11.87 L23.20,11.90 L23.60,11.93 L24.00,11.96 L24.40,11.99 L24.80,12.03 L25.20,12.07 L25.60,12.10 L26.00,12.13 L26.40,12.16 L26.80,12.18 L27.20,12.19 L27.60,12.20 L28.00,12.20 L28.40,12.20 L28.80,12.19 L29.20,12.18 L29.60,12.16 L30.00,12.14 L30.40,12.12 L30.80,12.10 L31.20,12.09 L31.60,12.09 L32.00,12.10 L32.40,12.11 L32.80,12.13 L33.20,12.16 L33.60,12.19 L34.00,12.22 L34.40,12.25 L34.80,12.28 L35.20,12.31 L35.60,12.33 L36.00,12.35 L36.40,12.35 L36.80,12.35 L37.20,12.35 L37.60,12.33 L38.00,12.30 L38.40,12.27 L38.80,12.23 L39.20,12.19 L39.60,12.14 L40.00,12.09 L40.40,12.04 L40.80,11.99 L41.20,11.95 L41.60,11.92 L42.00,11.89 L42.40,11.88 L42.80,11.87 L43.20,11.88 L43.60,11.89 L44.00,11.91 L44.40,11.94 L44.80,11.98 L45.20,12.01 L45.60,12.05 L46.00,12.09 L46.40,12.13 L46.80,12.16 L47.20,12.19 L47.60,12.21 L48.00,12.21 L48.40,12.21 L48.80,12.20 L49.20,12.18 L49.60,12.16 L50.00,12.13 L50.40,12.09 L50.80,12.07 L51.20,12.04 L51.60,12.02 L52.00,12.01 L52.40,12.01 L52.80,12.01 L53.20,12.03 L53.60,12.04 L54.00,12.07 L54.40,12.09 L54.80,12.12 L55.20,12.15 L55.60,12.18 L56.00,12.20 L56.40,12.22 L56.80,12.24 L57.20,12.25 L57.60,12.25 L58.00,12.25 L58.40,12.24 L58.80,12.22 L59.20,12.20 L59.60,12.17 L60.00,12.14 L60.40,12.11 L60.80,12.07 L61.20,12.02 L61.60,11.97 L62.00,11.91 L62.40,11.84 L62.80,11.77 L63.20,11.70 L63.60,11.63 L64.00,11.57 L64.40,11.52 L64.80,11.48 L65.20,11.46 L65.60,11.44 L66.00,11.45 L66.40,11.47 L66.80,11.50 L67.20,11.54 L67.60,11.59 L68.00,11.65 L68.40,11.72 L68.80,11.78 L69.20,11.85 L69.60,11.91" fill="none" stroke="#2c261e" stroke-width="0.036" opacity="0.060"/>
    <path d="M0.00,14.40 L0.00,14.60 L0.40,14.56 L0.80,14.51 L1.20,14.46 L1.60,14.41 L2.00,14.36 L2.40,14.30 L2.80,14.24 L3.20,14.18 L3.60,14.13 L4.00,14.08 L4.40,14.04 L4.80,14.01 L5.20,13.99 L5.60,13.98 L6.00,13.97 L6.40,13.98 L6.80,14.00 L7.20,14.02 L7.60,14.05 L8.00,14.08 L8.40,14.11 L8.80,14.14 L9.20,14.17 L9.60,14.20 L10.00,14.22 L10.40,14.25 L10.80,14.28 L11.20,14.31 L11.60,14.34 L12.00,14.38 L12.40,14.42 L12.80,14.46 L13.20,14.50 L13.60,14.54 L14.00,14.57 L14.40,14.61 L14.80,14.63 L15.20,14.65 L15.60,14.67 L16.00,14.68 L16.40,14.68 L16.80,14.68 L17.20,14.68 L17.60,14.67 L18.00,14.65 L18.40,14.64 L18.80,14.63 L19.20,14.61 L19.60,14.60 L20.00,14.59 L20.40,14.58 L20.80,14.56 L21.20,14.55 L21.60,14.54 L22.00,14.53 L22.40,14.52 L22.80,14.51 L23.20,14.50 L23.60,14.48 L24.00,14.47 L24.40,14.46 L24.80,14.44 L25.20,14.43 L25.60,14.41 L26.00,14.39 L26.40,14.38 L26.80,14.36 L27.20,14.34 L27.60,14.32 L28.00,14.30 L28.40,14.28 L28.80,14.26 L29.20,14.24 L29.60,14.22 L30.00,14.20 L30.40,14.18 L30.80,14.17 L31.20,14.16 L31.60,14.16 L32.00,14.17 L32.40,14.19 L32.80,14.21 L33.20,14.24 L33.60,14.28 L34.00,14.32 L34.40,14.36 L34.80,14.39 L35.20,14.43 L35.60,14.46 L36.00,14.48 L36.40,14.49 L36.80,14.50 L37.20,14.50 L37.60,14.48 L38.00,14.46 L38.40,14.43 L38.80,14.40 L39.20,14.36 L39.60,14.31 L40.00,14.26 L40.40,14.21 L40.80,14.17 L41.20,14.13 L41.60,14.10 L42.00,14.07 L42.40,14.05 L42.80,14.04 L43.20,14.04 L43.60,14.05 L44.00,14.07 L44.40,14.09 L44.80,14.12 L45.20,14.15 L45.60,14.19 L46.00,14.22 L46.40,14.25 L46.80,14.28 L47.20,14.30 L47.60,14.32 L48.00,14.32 L48.40,14.32 L48.80,14.31 L49.20,14.29 L49.60,14.26 L50.00,14.23 L50.40,14.20 L50.80,14.18 L51.20,14.15 L51.60,14.14 L52.00,14.13 L52.40,14.12 L52.80,14.13 L53.20,14.14 L53.60,14.15 L54.00,14.18 L54.40,14.20 L54.80,14.23 L55.20,14.25 L55.60,14.28 L56.00,14.30 L56.40,14.32 L56.80,14.34 L57.20,14.35 L57.60,14.35 L58.00,14.35 L58.40,14.34 L58.80,14.32 L59.20,14.30 L59.60,14.27 L60.00,14.24 L60.40,14.21 L60.80,14.17 L61.20,14.13 L61.60,14.08 L62.00,14.03 L62.40,13.97 L62.80,13.92 L63.20,13.87 L63.60,13.82 L64.00,13.78 L64.40,13.75 L64.80,13.74 L65.20,13.74 L65.60,13.75 L66.00,13.78 L66.40,13.81 L66.80,13.87 L67.20,13.93 L67.60,13.99 L68.00,14.07 L68.40,14.14 L68.80,14.21 L69.20,14.28 L69.60,14.35" fill="none" stroke="#2c261e" stroke-width="0.036" opacity="0.060"/>
    <path d="M0.00,16.80 L0.00,17.40 L0.40,17.36 L0.80,17.32 L1.20,17.28 L1.60,17.23 L2.00,17.18 L2.40,17.12 L2.80,17.06 L3.20,17.00 L3.60,16.93 L4.00,16.87 L4.40,16.82 L4.80,16.76 L5.20,16.72 L5.60,16.68 L6.00,16.64 L6.40,16.62 L6.80,16.60 L7.20,16.59 L7.60,16.58 L8.00,16.58 L8.40,16.58 L8.80,16.59 L9.20,16.59 L9.60,16.60 L10.00,16.61 L10.40,16.62 L10.80,16.63 L11.20,16.64 L11.60,16.66 L12.00,16.68 L12.40,16.71 L12.80,16.74 L13.20,16.78 L13.60,16.81 L14.00,16.85 L14.40,16.89 L14.80,16.92 L15.20,16.95 L15.60,16.98 L16.00,17.00 L16.40,17.02 L16.80,17.03 L17.20,17.04 L17.60,17.04 L18.00,17.04 L18.40,17.03 L18.80,17.02 L19.20,17.01 L19.60,16.99 L20.00,16.97 L20.40,16.96 L20.80,16.94 L21.20,16.92 L21.60,16.89 L22.00,16.86 L22.40,16.83 L22.80,16.80 L23.20,16.76 L23.60,16.72 L24.00,16.68 L24.40,16.64 L24.80,16.61 L25.20,16.57 L25.60,16.54 L26.00,16.52 L26.40,16.50 L26.80,16.48 L27.20,16.46 L27.60,16.45 L28.00,16.45 L28.40,16.44 L28.80,16.44 L29.20,16.44 L29.60,16.44 L30.00,16.45 L30.40,16.45 L30.80,16.46 L31.20,16.46 L31.60,16.47 L32.00,16.48 L32.40,16.50 L32.80,16.52 L33.20,16.53 L33.60,16.55 L34.00,16.57 L34.40,16.59 L34.80,16.60 L35.20,16.61 L35.60,16.62 L36.00,16.62 L36.40,16.62 L36.80,16.62 L37.20,16.61 L37.60,16.60 L38.00,16.59 L38.40,16.57 L38.80,16.55 L39.20,16.54 L39.60,16.52 L40.00,16.50 L40.40,16.48 L40.80,16.47 L41.20,16.45 L41.60,16.44 L42.00,16.43 L42.40,16.43 L42.80,16.44 L43.20,16.44 L43.60,16.46 L44.00,16.47 L44.40,16.49 L44.80,16.51 L45.20,16.53 L45.60,16.56 L46.00,16.58 L46.40,16.60 L46.80,16.62 L47.20,16.64 L47.60,16.65 L48.00,16.66 L48.40,16.66 L48.80,16.66 L49.20,16.65 L49.60,16.65 L50.00,16.63 L50.40,16.62 L50.80,16.62 L51.20,16.61 L51.60,16.61 L52.00,16.62 L52.40,16.63 L52.80,16.64 L53.20,16.66 L53.60,16.68 L54.00,16.70 L54.40,16.72 L54.80,16.75 L55.20,16.77 L55.60,16.78 L56.00,16.80 L56.40,16.81 L56.80,16.82 L57.20,16.82 L57.60,16.81 L58.00,16.80 L58.40,16.79 L58.80,16.77 L59.20,16.75 L59.60,16.72 L60.00,16.70 L60.40,16.67 L60.80,16.64 L61.20,16.60 L61.60,16.56 L62.00,16.51 L62.40,16.45 L62.80,16.39 L63.20,16.34 L63.60,16.28 L64.00,16.24 L64.40,16.20 L64.80,16.17 L65.20,16.15 L65.60,16.15 L66.00,16.16 L66.40,16.19 L66.80,16.22 L67.20,16.27 L67.60,16.32 L68.00,16.39 L68.40,16.45 L68.80,16.51 L69.20,16.58 L69.60,16.64" fill="none" stroke="#2c261e" stroke-width="0.036" opacity="0.060"/>
    <path d="M0.00,19.20 L0.00,19.83 L0.40,19.80 L0.80,19.77 L1.20,19.74 L1.60,19.72 L2.00,19.69 L2.40,19.67 L2.80,19.64 L3.20,19.62 L3.60,19.59 L4.00,19.57 L4.40,19.55 L4.80,19.53 L5.20,19.51 L5.60,19.49 L6.00,19.47 L6.40,19.45 L6.80,19.43 L7.20,19.41 L7.60,19.39 L8.00,19.37 L8.40,19.35 L8.80,19.33 L9.20,19.31 L9.60,19.28 L10.00,19.26 L10.40,19.23 L10.80,19.21 L11.20,19.19 L11.60,19.17 L12.00,19.16 L12.40,19.15 L12.80,19.15 L13.20,19.14 L13.60,19.14 L14.00,19.15 L14.40,19.15 L14.80,19.16 L15.20,19.17 L15.60,19.18 L16.00,19.18 L16.40,19.19 L16.80,19.19 L17.20,19.19 L17.60,19.18 L18.00,19.17 L18.40,19.16 L18.80,19.15 L19.20,19.13 L19.60,19.11 L20.00,19.08 L20.40,19.06 L20.80,19.03 L21.20,19.00 L21.60,18.97 L22.00,18.93 L22.40,18.88 L22.80,18.84 L23.20,18.80 L23.60,18.76 L24.00,18.72 L24.40,18.69 L24.80,18.67 L25.20,18.66 L25.60,18.66 L26.00,18.67 L26.40,18.69 L26.80,18.71 L27.20,18.74 L27.60,18.78 L28.00,18.82 L28.40,18.86 L28.80,18.90 L29.20,18.95 L29.60,18.99 L30.00,19.03 L30.40,19.06 L30.80,19.10 L31.20,19.13 L31.60,19.15 L32.00,19.17 L32.40,19.18 L32.80,19.18 L33.20,19.17 L33.60,19.15 L34.00,19.13 L34.40,19.10 L34.80,19.07 L35.20,19.03 L35.60,19.00 L36.00,18.96 L36.40,18.93 L36.80,18.91 L37.20,18.89 L37.60,18.88 L38.00,18.88 L38.40,18.88 L38.80,18.90 L39.20,18.92 L39.60,18.95 L40.00,18.98 L40.40,19.01 L40.80,19.04 L41.20,19.07 L41.60,19.09 L42.00,19.12 L42.40,19.14 L42.80,19.16 L43.20,19.17 L43.60,19.18 L44.00,19.19 L44.40,19.19 L44.80,19.19 L45.20,19.19 L45.60,19.19 L46.00,19.19 L46.40,19.19 L46.80,19.19 L47.20,19.19 L47.60,19.20 L48.00,19.20 L48.40,19.21 L48.80,19.23 L49.20,19.24 L49.60,19.26 L50.00,19.28 L50.40,19.31 L50.80,19.33 L51.20,19.35 L51.60,19.38 L52.00,19.41 L52.40,19.44 L52.80,19.47 L53.20,19.49 L53.60,19.52 L54.00,19.54 L54.40,19.55 L54.80,19.56 L55.20,19.57 L55.60,19.57 L56.00,19.56 L56.40,19.55 L56.80,19.54 L57.20,19.52 L57.60,19.50 L58.00,19.48 L58.40,19.46 L58.80,19.44 L59.20,19.42 L59.60,19.40 L60.00,19.39 L60.40,19.37 L60.80,19.35 L61.20,19.31 L61.60,19.27 L62.00,19.22 L62.40,19.16 L62.80,19.09 L63.20,19.02 L63.60,18.95 L64.00,18.88 L64.40,18.82 L64.80,18.76 L65.20,18.72 L65.60,18.68 L66.00,18.66 L66.40,18.65 L66.80,18.65 L67.20,18.67 L67.60,18.70 L68.00,18.74 L68.40,18.78 L68.80,18.83 L69.20,18.89 L69.60,18.95" fill="none" stroke="#2c261e" stroke-width="0.036" opacity="0.060"/>
    <path d="M0.00,21.60 L0.00,21.83 L0.40,21.81 L0.80,21.79 L1.20,21.77 L1.60,21.77 L2.00,21.77 L2.40,21.77 L2.80,21.78 L3.20,21.80 L3.60,21.82 L4.00,21.85 L4.40,21.87 L4.80,21.89 L5.20,21.92 L5.60,21.93 L6.00,21.95 L6.40,21.95 L6.80,21.95 L7.20,21.95 L7.60,21.93 L8.00,21.91 L8.40,21.88 L8.80,21.85 L9.20,21.81 L9.60,21.77 L10.00,21.73 L10.40,21.69 L10.80,21.65 L11.20,21.61 L11.60,21.57 L12.00,21.54 L12.40,21.52 L12.80,21.50 L13.20,21.48 L13.60,21.47 L14.00,21.47 L14.40,21.47 L14.80,21.48 L15.20,21.49 L15.60,21.50 L16.00,21.51 L16.40,21.52 L16.80,21.53 L17.20,21.53 L17.60,21.53 L18.00,21.53 L18.40,21.52 L18.80,21.50 L19.20,21.48 L19.60,21.46 L20.00,21.43 L20.40,21.40 L20.80,21.37 L21.20,21.34 L21.60,21.29 L22.00,21.24 L22.40,21.19 L22.80,21.14 L23.20,21.09 L23.60,21.05 L24.00,21.02 L24.40,20.99 L24.80,20.98 L25.20,20.98 L25.60,20.99 L26.00,21.01 L26.40,21.05 L26.80,21.10 L27.20,21.16 L27.60,21.22 L28.00,21.29 L28.40,21.36 L28.80,21.43 L29.20,21.49 L29.60,21.56 L30.00,21.62 L30.40,21.68 L30.80,21.73 L31.20,21.78 L31.60,21.81 L32.00,21.83 L32.40,21.83 L32.80,21.82 L33.20,21.80 L33.60,21.77 L34.00,21.72 L34.40,21.67 L34.80,21.61 L35.20,21.56 L35.60,21.50 L36.00,21.45 L36.40,21.40 L36.80,21.37 L37.20,21.35 L37.60,21.34 L38.00,21.34 L38.40,21.36 L38.80,21.40 L39.20,21.44 L39.60,21.50 L40.00,21.56 L40.40,21.62 L40.80,21.67 L41.20,21.73 L41.60,21.77 L42.00,21.81 L42.40,21.83 L42.80,21.85 L43.20,21.86 L43.60,21.85 L44.00,21.84 L44.40,21.82 L44.80,21.79 L45.20,21.76 L45.60,21.73 L46.00,21.70 L46.40,21.67 L46.80,21.64 L47.20,21.62 L47.60,21.61 L48.00,21.61 L48.40,21.62 L48.80,21.64 L49.20,21.66 L49.60,21.70 L50.00,21.74 L50.40,21.78 L50.80,21.82 L51.20,21.86 L51.60,21.90 L52.00,21.94 L52.40,21.98 L52.80,22.02 L53.20,22.04 L53.60,22.07 L54.00,22.08 L54.40,22.09 L54.80,22.09 L55.20,22.08 L55.60,22.06 L56.00,22.04 L56.40,22.01 L56.80,21.98 L57.20,21.95 L57.60,21.91 L58.00,21.88 L58.40,21.86 L58.80,21.83 L59.20,21.81 L59.60,21.80 L60.00,21.79 L60.40,21.78 L60.80,21.76 L61.20,21.74 L61.60,21.70 L62.00,21.66 L62.40,21.61 L62.80,21.55 L63.20,21.49 L63.60,21.42 L64.00,21.36 L64.40,21.31 L64.80,21.25 L65.20,21.21 L65.60,21.18 L66.00,21.16 L66.40,21.15 L66.80,21.16 L67.20,21.17 L67.60,21.20 L68.00,21.24 L68.40,21.28 L68.80,21.33 L69.20,21.38 L69.60,21.43" fill="none" stroke="#2c261e" stroke-width="0.036" opacity="0.060"/>
    <path d="M0.00,24.00 L0.00,23.85 L0.40,23.83 L0.80,23.81 L1.20,23.80 L1.60,23.80 L2.00,23.80 L2.40,23.81 L2.80,23.83 L3.20,23.86 L3.60,23.89 L4.00,23.92 L4.40,23.95 L4.80,23.99 L5.20,24.02 L5.60,24.04 L6.00,24.06 L6.40,24.08 L6.80,24.09 L7.20,24.08 L7.60,24.07 L8.00,24.06 L8.40,24.03 L8.80,24.00 L9.20,23.96 L9.60,23.92 L10.00,23.88 L10.40,23.83 L10.80,23.79 L11.20,23.76 L11.60,23.73 L12.00,23.72 L12.40,23.71 L12.80,23.72 L13.20,23.73 L13.60,23.76 L14.00,23.80 L14.40,23.84 L14.80,23.89 L15.20,23.94 L15.60,23.99 L16.00,24.04 L16.40,24.09 L16.80,24.14 L17.20,24.17 L17.60,24.20 L18.00,24.21 L18.40,24.22 L18.80,24.21 L19.20,24.20 L19.60,24.18 L20.00,24.15 L20.40,24.12 L20.80,24.09 L21.20,24.04 L21.60,23.99 L22.00,23.94 L22.40,23.87 L22.80,23.80 L23.20,23.74 L23.60,23.67 L24.00,23.61 L24.40,23.56 L24.80,23.52 L25.20,23.49 L25.60,23.48 L26.00,23.48 L26.40,23.49 L26.80,23.52 L27.20,23.56 L27.60,23.61 L28.00,23.66 L28.40,23.73 L28.80,23.79 L29.20,23.85 L29.60,23.92 L30.00,23.98 L30.40,24.04 L30.80,24.10 L31.20,24.14 L31.60,24.18 L32.00,24.20 L32.40,24.21 L32.80,24.20 L33.20,24.18 L33.60,24.15 L34.00,24.11 L34.40,24.06 L34.80,24.01 L35.20,23.96 L35.60,23.91 L36.00,23.86 L36.40,23.82 L36.80,23.80 L37.20,23.78 L37.60,23.77 L38.00,23.78 L38.40,23.81 L38.80,23.84 L39.20,23.89 L39.60,23.95 L40.00,24.01 L40.40,24.07 L40.80,24.13 L41.20,24.18 L41.60,24.23 L42.00,24.26 L42.40,24.27 L42.80,24.28 L43.20,24.27 L43.60,24.24 L44.00,24.21 L44.40,24.16 L44.80,24.11 L45.20,24.06 L45.60,24.00 L46.00,23.95 L46.40,23.89 L46.80,23.85 L47.20,23.81 L47.60,23.78 L48.00,23.77 L48.40,23.77 L48.80,23.78 L49.20,23.81 L49.60,23.84 L50.00,23.88 L50.40,23.93 L50.80,23.97 L51.20,24.01 L51.60,24.05 L52.00,24.09 L52.40,24.12 L52.80,24.15 L53.20,24.17 L53.60,24.19 L54.00,24.20 L54.40,24.20 L54.80,24.19 L55.20,24.17 L55.60,24.14 L56.00,24.11 L56.40,24.08 L56.80,24.04 L57.20,24.00 L57.60,23.97 L58.00,23.93 L58.40,23.90 L58.80,23.88 L59.20,23.86 L59.60,23.84 L60.00,23.83 L60.40,23.82 L60.80,23.81 L61.20,23.79 L61.60,23.77 L62.00,23.74 L62.40,23.71 L62.80,23.67 L63.20,23.64 L63.60,23.61 L64.00,23.59 L64.40,23.57 L64.80,23.56 L65.20,23.56 L65.60,23.58 L66.00,23.60 L66.40,23.63 L66.80,23.66 L67.20,23.71 L67.60,23.76 L68.00,23.81 L68.40,23.87 L68.80,23.93 L69.20,23.99 L69.60,24.04" fill="none" stroke="#2c261e" stroke-width="0.036" opacity="0.060"/>
    <path d="M0.00,26.40 L0.00,25.98 L0.40,25.97 L0.80,25.97 L1.20,25.97 L1.60,25.98 L2.00,25.99 L2.40,26.00 L2.80,26.01 L3.20,26.03 L3.60,26.04 L4.00,26.06 L4.40,26.07 L4.80,26.08 L5.20,26.09 L5.60,26.10 L6.00,26.10 L6.40,26.09 L6.80,26.09 L7.20,26.07 L7.60,26.06 L8.00,26.04 L8.40,26.02 L8.80,26.00 L9.20,25.97 L9.60,25.95 L10.00,25.92 L10.40,25.90 L10.80,25.88 L11.20,25.87 L11.60,25.88 L12.00,25.90 L12.40,25.93 L12.80,25.98 L13.20,26.05 L13.60,26.13 L14.00,26.22 L14.40,26.31 L14.80,26.41 L15.20,26.51 L15.60,26.60 L16.00,26.69 L16.40,26.78 L16.80,26.84 L17.20,26.90 L17.60,26.94 L18.00,26.97 L18.40,26.98 L18.80,26.97 L19.20,26.95 L19.60,26.93 L20.00,26.89 L20.40,26.86 L20.80,26.82 L21.20,26.77 L21.60,26.72 L22.00,26.66 L22.40,26.59 L22.80,26.52 L23.20,26.45 L23.60,26.38 L24.00,26.32 L24.40,26.27 L24.80,26.22 L25.20,26.19 L25.60,26.17 L26.00,26.16 L26.40,26.17 L26.80,26.19 L27.20,26.21 L27.60,26.25 L28.00,26.30 L28.40,26.34 L28.80,26.39 L29.20,26.44 L29.60,26.49 L30.00,26.54 L30.40,26.59 L30.80,26.63 L31.20,26.66 L31.60,26.68 L32.00,26.69 L32.40,26.68 L32.80,26.65 L33.20,26.62 L33.60,26.57 L34.00,26.51 L34.40,26.45 L34.80,26.38 L35.20,26.32 L35.60,26.26 L36.00,26.21 L36.40,26.16 L36.80,26.13 L37.20,26.10 L37.60,26.10 L38.00,26.11 L38.40,26.13 L38.80,26.16 L39.20,26.21 L39.60,26.27 L40.00,26.33 L40.40,26.39 L40.80,26.45 L41.20,26.50 L41.60,26.55 L42.00,26.58 L42.40,26.61 L42.80,26.63 L43.20,26.63 L43.60,26.62 L44.00,26.60 L44.40,26.57 L44.80,26.52 L45.20,26.48 L45.60,26.42 L46.00,26.37 L46.40,26.31 L46.80,26.26 L47.20,26.21 L47.60,26.17 L48.00,26.14 L48.40,26.12 L48.80,26.11 L49.20,26.12 L49.60,26.13 L50.00,26.15 L50.40,26.17 L50.80,26.19 L51.20,26.21 L51.60,26.22 L52.00,26.24 L52.40,26.25 L52.80,26.25 L53.20,26.25 L53.60,26.24 L54.00,26.23 L54.40,26.21 L54.80,26.19 L55.20,26.16 L55.60,26.12 L56.00,26.08 L56.40,26.04 L56.80,26.00 L57.20,25.96 L57.60,25.92 L58.00,25.89 L58.40,25.85 L58.80,25.83 L59.20,25.81 L59.60,25.79 L60.00,25.77 L60.40,25.76 L60.80,25.75 L61.20,25.73 L61.60,25.72 L62.00,25.72 L62.40,25.72 L62.80,25.72 L63.20,25.74 L63.60,25.77 L64.00,25.80 L64.40,25.85 L64.80,25.91 L65.20,25.97 L65.60,26.05 L66.00,26.13 L66.40,26.22 L66.80,26.30 L67.20,26.39 L67.60,26.48 L68.00,26.56 L68.40,26.63 L68.80,26.70 L69.20,26.75 L69.60,26.80" fill="none" stroke="#2c261e" stroke-width="0.036" opacity="0.060"/>
    <path d="M0.00,28.80 L0.00,28.45 L0.40,28.48 L0.80,28.51 L1.20,28.54 L1.60,28.56 L2.00,28.58 L2.40,28.59 L2.80,28.59 L3.20,28.58 L3.60,28.57 L4.00,28.55 L4.40,28.53 L4.80,28.50 L5.20,28.46 L5.60,28.42 L6.00,28.38 L6.40,28.35 L6.80,28.31 L7.20,28.28 L7.60,28.25 L8.00,28.23 L8.40,28.22 L8.80,28.22 L9.20,28.22 L9.60,28.23 L10.00,28.24 L10.40,28.25 L10.80,28.27 L11.20,28.30 L11.60,28.35 L12.00,28.41 L12.40,28.48 L12.80,28.57 L13.20,28.67 L13.60,28.77 L14.00,28.88 L14.40,28.98 L14.80,29.08 L15.20,29.18 L15.60,29.26 L16.00,29.33 L16.40,29.39 L16.80,29.44 L17.20,29.46 L17.60,29.47 L18.00,29.47 L18.40,29.45 L18.80,29.43 L19.20,29.39 L19.60,29.35 L20.00,29.30 L20.40,29.25 L20.80,29.21 L21.20,29.16 L21.60,29.10 L22.00,29.05 L22.40,29.00 L22.80,28.95 L23.20,28.91 L23.60,28.87 L24.00,28.84 L24.40,28.82 L24.80,28.82 L25.20,28.82 L25.60,28.83 L26.00,28.85 L26.40,28.87 L26.80,28.91 L27.20,28.94 L27.60,28.98 L28.00,29.02 L28.40,29.06 L28.80,29.09 L29.20,29.12 L29.60,29.14 L30.00,29.17 L30.40,29.19 L30.80,29.20 L31.20,29.20 L31.60,29.19 L32.00,29.16 L32.40,29.12 L32.80,29.07 L33.20,29.01 L33.60,28.93 L34.00,28.86 L34.40,28.78 L34.80,28.70 L35.20,28.62 L35.60,28.55 L36.00,28.49 L36.40,28.44 L36.80,28.41 L37.20,28.39 L37.60,28.38 L38.00,28.39 L38.40,28.42 L38.80,28.45 L39.20,28.50 L39.60,28.55 L40.00,28.61 L40.40,28.67 L40.80,28.73 L41.20,28.79 L41.60,28.85 L42.00,28.91 L42.40,28.97 L42.80,29.03 L43.20,29.08 L43.60,29.11 L44.00,29.14 L44.40,29.16 L44.80,29.16 L45.20,29.15 L45.60,29.13 L46.00,29.10 L46.40,29.06 L46.80,29.02 L47.20,28.96 L47.60,28.91 L48.00,28.86 L48.40,28.81 L48.80,28.77 L49.20,28.74 L49.60,28.71 L50.00,28.68 L50.40,28.66 L50.80,28.63 L51.20,28.61 L51.60,28.58 L52.00,28.56 L52.40,28.53 L52.80,28.51 L53.20,28.48 L53.60,28.46 L54.00,28.43 L54.40,28.41 L54.80,28.38 L55.20,28.36 L55.60,28.34 L56.00,28.31 L56.40,28.29 L56.80,28.27 L57.20,28.25 L57.60,28.22 L58.00,28.20 L58.40,28.18 L58.80,28.16 L59.20,28.13 L59.60,28.11 L60.00,28.09 L60.40,28.07 L60.80,28.05 L61.20,28.03 L61.60,28.03 L62.00,28.03 L62.40,28.04 L62.80,28.06 L63.20,28.10 L63.60,28.15 L64.00,28.22 L64.40,28.29 L64.80,28.38 L65.20,28.47 L65.60,28.58 L66.00,28.68 L66.40,28.79 L66.80,28.89 L67.20,28.99 L67.60,29.08 L68.00,29.16 L68.40,29.23 L68.80,29.29 L69.20,29.33 L69.60,29.37" fill="none" stroke="#2c261e" stroke-width="0.036" opacity="0.060"/>
    <path d="M0.00,31.20 L0.00,31.12 L0.40,31.18 L0.80,31.23 L1.20,31.28 L1.60,31.32 L2.00,31.34 L2.40,31.36 L2.80,31.36 L3.20,31.35 L3.60,31.32 L4.00,31.29 L4.40,31.25 L4.80,31.20 L5.20,31.14 L5.60,31.08 L6.00,31.03 L6.40,30.97 L6.80,30.93 L7.20,30.89 L7.60,30.86 L8.00,30.85 L8.40,30.85 L8.80,30.86 L9.20,30.88 L9.60,30.91 L10.00,30.95 L10.40,30.99 L10.80,31.04 L11.20,31.09 L11.60,31.15 L12.00,31.22 L12.40,31.30 L12.80,31.38 L13.20,31.46 L13.60,31.54 L14.00,31.61 L14.40,31.68 L14.80,31.73 L15.20,31.77 L15.60,31.79 L16.00,31.80 L16.40,31.80 L16.80,31.78 L17.20,31.75 L17.60,31.71 L18.00,31.66 L18.40,31.61 L18.80,31.55 L19.20,31.49 L19.60,31.44 L20.00,31.38 L20.40,31.33 L20.80,31.27 L21.20,31.22 L21.60,31.17 L22.00,31.13 L22.40,31.09 L22.80,31.06 L23.20,31.04 L23.60,31.03 L24.00,31.03 L24.40,31.04 L24.80,31.06 L25.20,31.09 L25.60,31.13 L26.00,31.17 L26.40,31.22 L26.80,31.26 L27.20,31.31 L27.60,31.35 L28.00,31.39 L28.40,31.42 L28.80,31.44 L29.20,31.46 L29.60,31.46 L30.00,31.46 L30.40,31.46 L30.80,31.46 L31.20,31.44 L31.60,31.42 L32.00,31.38 L32.40,31.33 L32.80,31.28 L33.20,31.21 L33.60,31.15 L34.00,31.08 L34.40,31.01 L34.80,30.95 L35.20,30.90 L35.60,30.85 L36.00,30.82 L36.40,30.80 L36.80,30.79 L37.20,30.79 L37.60,30.80 L38.00,30.83 L38.40,30.86 L38.80,30.91 L39.20,30.95 L39.60,31.01 L40.00,31.06 L40.40,31.12 L40.80,31.18 L41.20,31.24 L41.60,31.32 L42.00,31.39 L42.40,31.48 L42.80,31.56 L43.20,31.63 L43.60,31.70 L44.00,31.76 L44.40,31.81 L44.80,31.84 L45.20,31.85 L45.60,31.85 L46.00,31.83 L46.40,31.80 L46.80,31.75 L47.20,31.69 L47.60,31.63 L48.00,31.56 L48.40,31.49 L48.80,31.42 L49.20,31.36 L49.60,31.30 L50.00,31.24 L50.40,31.18 L50.80,31.13 L51.20,31.08 L51.60,31.03 L52.00,30.98 L52.40,30.95 L52.80,30.92 L53.20,30.90 L53.60,30.89 L54.00,30.88 L54.40,30.88 L54.80,30.89 L55.20,30.90 L55.60,30.91 L56.00,30.93 L56.40,30.95 L56.80,30.96 L57.20,30.98 L57.60,30.98 L58.00,30.99 L58.40,30.98 L58.80,30.97 L59.20,30.95 L59.60,30.93 L60.00,30.90 L60.40,30.87 L60.80,30.84 L61.20,30.82 L61.60,30.80 L62.00,30.78 L62.40,30.77 L62.80,30.77 L63.20,30.78 L63.60,30.79 L64.00,30.82 L64.40,30.85 L64.80,30.90 L65.20,30.95 L65.60,31.00 L66.00,31.06 L66.40,31.13 L66.80,31.19 L67.20,31.25 L67.60,31.31 L68.00,31.36 L68.40,31.40 L68.80,31.43 L69.20,31.46 L69.60,31.48" fill="none" stroke="#2c261e" stroke-width="0.036" opacity="0.060"/>
    <path d="M0.00,33.60 L0.00,33.61 L0.40,33.67 L0.80,33.73 L1.20,33.79 L1.60,33.83 L2.00,33.86 L2.40,33.89 L2.80,33.90 L3.20,33.90 L3.60,33.89 L4.00,33.86 L4.40,33.83 L4.80,33.80 L5.20,33.76 L5.60,33.71 L6.00,33.67 L6.40,33.63 L6.80,33.60 L7.20,33.57 L7.60,33.55 L8.00,33.55 L8.40,33.55 L8.80,33.57 L9.20,33.60 L9.60,33.63 L10.00,33.67 L10.40,33.72 L10.80,33.76 L11.20,33.81 L11.60,33.87 L12.00,33.93 L12.40,33.99 L12.80,34.05 L13.20,34.11 L13.60,34.15 L14.00,34.19 L14.40,34.22 L14.80,34.23 L15.20,34.22 L15.60,34.21 L16.00,34.18 L16.40,34.13 L16.80,34.08 L17.20,34.01 L17.60,33.95 L18.00,33.87 L18.40,33.80 L18.80,33.73 L19.20,33.67 L19.60,33.61 L20.00,33.55 L20.40,33.50 L20.80,33.44 L21.20,33.39 L21.60,33.34 L22.00,33.29 L22.40,33.25 L22.80,33.21 L23.20,33.19 L23.60,33.17 L24.00,33.17 L24.40,33.17 L24.80,33.18 L25.20,33.20 L25.60,33.23 L26.00,33.27 L26.40,33.31 L26.80,33.35 L27.20,33.39 L27.60,33.42 L28.00,33.45 L28.40,33.48 L28.80,33.50 L29.20,33.51 L29.60,33.51 L30.00,33.51 L30.40,33.50 L30.80,33.50 L31.20,33.49 L31.60,33.47 L32.00,33.44 L32.40,33.41 L32.80,33.38 L33.20,33.35 L33.60,33.31 L34.00,33.28 L34.40,33.25 L34.80,33.23 L35.20,33.22 L35.60,33.22 L36.00,33.23 L36.40,33.24 L36.80,33.27 L37.20,33.30 L37.60,33.34 L38.00,33.39 L38.40,33.44 L38.80,33.49 L39.20,33.54 L39.60,33.60 L40.00,33.65 L40.40,33.71 L40.80,33.77 L41.20,33.83 L41.60,33.90 L42.00,33.97 L42.40,34.05 L42.80,34.12 L43.20,34.19 L43.60,34.24 L44.00,34.29 L44.40,34.32 L44.80,34.33 L45.20,34.33 L45.60,34.31 L46.00,34.27 L46.40,34.22 L46.80,34.16 L47.20,34.08 L47.60,34.01 L48.00,33.93 L48.40,33.85 L48.80,33.77 L49.20,33.70 L49.60,33.63 L50.00,33.57 L50.40,33.51 L50.80,33.45 L51.20,33.40 L51.60,33.36 L52.00,33.32 L52.40,33.30 L52.80,33.29 L53.20,33.29 L53.60,33.31 L54.00,33.33 L54.40,33.37 L54.80,33.41 L55.20,33.46 L55.60,33.51 L56.00,33.56 L56.40,33.61 L56.80,33.66 L57.20,33.70 L57.60,33.73 L58.00,33.75 L58.40,33.76 L58.80,33.75 L59.20,33.74 L59.60,33.72 L60.00,33.69 L60.40,33.66 L60.80,33.63 L61.20,33.60 L61.60,33.56 L62.00,33.52 L62.40,33.49 L62.80,33.45 L63.20,33.42 L63.60,33.39 L64.00,33.36 L64.40,33.35 L64.80,33.33 L65.20,33.33 L65.60,33.32 L66.00,33.33 L66.40,33.34 L66.80,33.36 L67.20,33.38 L67.60,33.40 L68.00,33.42 L68.40,33.44 L68.80,33.46 L69.20,33.48 L69.60,33.49" fill="none" stroke="#2c261e" stroke-width="0.036" opacity="0.060"/>
    <path d="M0.00,36.00 L0.00,36.11 L0.40,36.15 L0.80,36.20 L1.20,36.24 L1.60,36.27 L2.00,36.30 L2.40,36.33 L2.80,36.35 L3.20,36.36 L3.60,36.37 L4.00,36.38 L4.40,36.38 L4.80,36.37 L5.20,36.36 L5.60,36.35 L6.00,36.34 L6.40,36.33 L6.80,36.33 L7.20,36.32 L7.60,36.32 L8.00,36.33 L8.40,36.34 L8.80,36.35 L9.20,36.37 L9.60,36.40 L10.00,36.42 L10.40,36.45 L10.80,36.48 L11.20,36.51 L11.60,36.53 L12.00,36.56 L12.40,36.58 L12.80,36.59 L13.20,36.59 L13.60,36.59 L14.00,36.58 L14.40,36.55 L14.80,36.51 L15.20,36.47 L15.60,36.41 L16.00,36.35 L16.40,36.28 L16.80,36.21 L17.20,36.14 L17.60,36.06 L18.00,36.00 L18.40,35.93 L18.80,35.88 L19.20,35.83 L19.60,35.79 L20.00,35.75 L20.40,35.71 L20.80,35.68 L21.20,35.64 L21.60,35.61 L22.00,35.58 L22.40,35.56 L22.80,35.54 L23.20,35.53 L23.60,35.53 L24.00,35.53 L24.40,35.54 L24.80,35.55 L25.20,35.57 L25.60,35.60 L26.00,35.62 L26.40,35.65 L26.80,35.68 L27.20,35.70 L27.60,35.73 L28.00,35.74 L28.40,35.75 L28.80,35.76 L29.20,35.76 L29.60,35.76 L30.00,35.75 L30.40,35.74 L30.80,35.73 L31.20,35.72 L31.60,35.71 L32.00,35.70 L32.40,35.68 L32.80,35.67 L33.20,35.67 L33.60,35.67 L34.00,35.67 L34.40,35.69 L34.80,35.71 L35.20,35.74 L35.60,35.78 L36.00,35.83 L36.40,35.88 L36.80,35.93 L37.20,36.00 L37.60,36.06 L38.00,36.12 L38.40,36.18 L38.80,36.24 L39.20,36.29 L39.60,36.34 L40.00,36.39 L40.40,36.44 L40.80,36.49 L41.20,36.54 L41.60,36.59 L42.00,36.63 L42.40,36.67 L42.80,36.70 L43.20,36.73 L43.60,36.74 L44.00,36.73 L44.40,36.72 L44.80,36.69 L45.20,36.64 L45.60,36.58 L46.00,36.51 L46.40,36.44 L46.80,36.35 L47.20,36.27 L47.60,36.19 L48.00,36.11 L48.40,36.03 L48.80,35.97 L49.20,35.92 L49.60,35.87 L50.00,35.83 L50.40,35.79 L50.80,35.75 L51.20,35.72 L51.60,35.70 L52.00,35.70 L52.40,35.71 L52.80,35.73 L53.20,35.77 L53.60,35.82 L54.00,35.89 L54.40,35.96 L54.80,36.03 L55.20,36.12 L55.60,36.20 L56.00,36.28 L56.40,36.36 L56.80,36.43 L57.20,36.48 L57.60,36.53 L58.00,36.56 L58.40,36.58 L58.80,36.59 L59.20,36.58 L59.60,36.56 L60.00,36.54 L60.40,36.52 L60.80,36.49 L61.20,36.46 L61.60,36.42 L62.00,36.38 L62.40,36.33 L62.80,36.27 L63.20,36.22 L63.60,36.16 L64.00,36.10 L64.40,36.04 L64.80,35.99 L65.20,35.94 L65.60,35.89 L66.00,35.85 L66.40,35.81 L66.80,35.79 L67.20,35.76 L67.60,35.75 L68.00,35.74 L68.40,35.73 L68.80,35.73 L69.20,35.74 L69.60,35.74" fill="none" stroke="#2c261e" stroke-width="0.036" opacity="0.060"/>
    <path d="M0.00,38.40 L0.00,38.60 L0.40,38.59 L0.80,38.58 L1.20,38.58 L1.60,38.59 L2.00,38.59 L2.40,38.61 L2.80,38.63 L3.20,38.65 L3.60,38.68 L4.00,38.71 L4.40,38.74 L4.80,38.77 L5.20,38.81 L5.60,38.84 L6.00,38.87 L6.40,38.90 L6.80,38.93 L7.20,38.95 L7.60,38.96 L8.00,38.97 L8.40,38.98 L8.80,38.98 L9.20,38.97 L9.60,38.97 L10.00,38.96 L10.40,38.95 L10.80,38.93 L11.20,38.91 L11.60,38.88 L12.00,38.85 L12.40,38.80 L12.80,38.75 L13.20,38.69 L13.60,38.63 L14.00,38.56 L14.40,38.50 L14.80,38.43 L15.20,38.36 L15.60,38.30 L16.00,38.24 L16.40,38.19 L16.80,38.15 L17.20,38.12 L17.60,38.09 L18.00,38.08 L18.40,38.07 L18.80,38.07 L19.20,38.07 L19.60,38.08 L20.00,38.09 L20.40,38.10 L20.80,38.11 L21.20,38.13 L21.60,38.15 L22.00,38.18 L22.40,38.21 L22.80,38.25 L23.20,38.28 L23.60,38.32 L24.00,38.36 L24.40,38.39 L24.80,38.42 L25.20,38.45 L25.60,38.47 L26.00,38.49 L26.40,38.50 L26.80,38.50 L27.20,38.50 L27.60,38.49 L28.00,38.48 L28.40,38.46 L28.80,38.45 L29.20,38.43 L29.60,38.41 L30.00,38.38 L30.40,38.36 L30.80,38.34 L31.20,38.32 L31.60,38.30 L32.00,38.28 L32.40,38.27 L32.80,38.26 L33.20,38.26 L33.60,38.27 L34.00,38.29 L34.40,38.31 L34.80,38.35 L35.20,38.39 L35.60,38.44 L36.00,38.49 L36.40,38.55 L36.80,38.62 L37.20,38.68 L37.60,38.74 L38.00,38.80 L38.40,38.85 L38.80,38.90 L39.20,38.94 L39.60,38.97 L40.00,39.01 L40.40,39.04 L40.80,39.06 L41.20,39.08 L41.60,39.10 L42.00,39.09 L42.40,39.08 L42.80,39.06 L43.20,39.02 L43.60,38.97 L44.00,38.91 L44.40,38.84 L44.80,38.76 L45.20,38.68 L45.60,38.60 L46.00,38.52 L46.40,38.44 L46.80,38.37 L47.20,38.30 L47.60,38.25 L48.00,38.21 L48.40,38.18 L48.80,38.16 L49.20,38.15 L49.60,38.15 L50.00,38.16 L50.40,38.17 L50.80,38.19 L51.20,38.21 L51.60,38.24 L52.00,38.27 L52.40,38.32 L52.80,38.38 L53.20,38.44 L53.60,38.51 L54.00,38.59 L54.40,38.67 L54.80,38.74 L55.20,38.82 L55.60,38.89 L56.00,38.95 L56.40,39.01 L56.80,39.06 L57.20,39.10 L57.60,39.13 L58.00,39.15 L58.40,39.17 L58.80,39.17 L59.20,39.17 L59.60,39.16 L60.00,39.15 L60.40,39.14 L60.80,39.13 L61.20,39.11 L61.60,39.10 L62.00,39.07 L62.40,39.05 L62.80,39.02 L63.20,38.99 L63.60,38.95 L64.00,38.91 L64.40,38.87 L64.80,38.83 L65.20,38.78 L65.60,38.73 L66.00,38.68 L66.40,38.64 L66.80,38.59 L67.20,38.55 L67.60,38.51 L68.00,38.48 L68.40,38.45 L68.80,38.42 L69.20,38.40 L69.60,38.37" fill="none" stroke="#2c261e" stroke-width="0.036" opacity="0.060"/>
    <path d="M0.00,40.80 L0.00,40.93 L0.40,40.88 L0.80,40.83 L1.20,40.80 L1.60,40.77 L2.00,40.75 L2.40,40.74 L2.80,40.75 L3.20,40.77 L3.60,40.79 L4.00,40.83 L4.40,40.88 L4.80,40.92 L5.20,40.98 L5.60,41.03 L6.00,41.08 L6.40,41.12 L6.80,41.16 L7.20,41.19 L7.60,41.21 L8.00,41.21 L8.40,41.21 L8.80,41.19 L9.20,41.16 L9.60,41.13 L10.00,41.09 L10.40,41.04 L10.80,41.00 L11.20,40.94 L11.60,40.88 L12.00,40.81 L12.40,40.73 L12.80,40.65 L13.20,40.57 L13.60,40.49 L14.00,40.42 L14.40,40.36 L14.80,40.31 L15.20,40.27 L15.60,40.25 L16.00,40.24 L16.40,40.24 L16.80,40.26 L17.20,40.29 L17.60,40.34 L18.00,40.38 L18.40,40.43 L18.80,40.49 L19.20,40.54 L19.60,40.60 L20.00,40.65 L20.40,40.70 L20.80,40.76 L21.20,40.82 L21.60,40.88 L22.00,40.95 L22.40,41.02 L22.80,41.09 L23.20,41.15 L23.60,41.21 L24.00,41.26 L24.40,41.30 L24.80,41.33 L25.20,41.35 L25.60,41.35 L26.00,41.35 L26.40,41.33 L26.80,41.30 L27.20,41.26 L27.60,41.22 L28.00,41.17 L28.40,41.13 L28.80,41.09 L29.20,41.05 L29.60,41.01 L30.00,40.98 L30.40,40.95 L30.80,40.91 L31.20,40.88 L31.60,40.85 L32.00,40.81 L32.40,40.79 L32.80,40.76 L33.20,40.74 L33.60,40.73 L34.00,40.73 L34.40,40.74 L34.80,40.75 L35.20,40.77 L35.60,40.80 L36.00,40.83 L36.40,40.87 L36.80,40.91 L37.20,40.95 L37.60,41.00 L38.00,41.04 L38.40,41.07 L38.80,41.10 L39.20,41.13 L39.60,41.15 L40.00,41.17 L40.40,41.18 L40.80,41.19 L41.20,41.19 L41.60,41.18 L42.00,41.16 L42.40,41.12 L42.80,41.07 L43.20,41.02 L43.60,40.95 L44.00,40.88 L44.40,40.81 L44.80,40.74 L45.20,40.67 L45.60,40.61 L46.00,40.56 L46.40,40.52 L46.80,40.49 L47.20,40.47 L47.60,40.47 L48.00,40.48 L48.40,40.50 L48.80,40.53 L49.20,40.57 L49.60,40.62 L50.00,40.67 L50.40,40.73 L50.80,40.78 L51.20,40.83 L51.60,40.89 L52.00,40.95 L52.40,41.00 L52.80,41.06 L53.20,41.11 L53.60,41.16 L54.00,41.19 L54.40,41.23 L54.80,41.25 L55.20,41.27 L55.60,41.28 L56.00,41.28 L56.40,41.28 L56.80,41.27 L57.20,41.26 L57.60,41.25 L58.00,41.23 L58.40,41.22 L58.80,41.22 L59.20,41.21 L59.60,41.21 L60.00,41.21 L60.40,41.21 L60.80,41.21 L61.20,41.22 L61.60,41.23 L62.00,41.24 L62.40,41.26 L62.80,41.27 L63.20,41.29 L63.60,41.30 L64.00,41.31 L64.40,41.32 L64.80,41.33 L65.20,41.32 L65.60,41.31 L66.00,41.30 L66.40,41.28 L66.80,41.25 L67.20,41.22 L67.60,41.19 L68.00,41.15 L68.40,41.11 L68.80,41.07 L69.20,41.03 L69.60,40.99" fill="none" stroke="#2c261e" stroke-width="0.036" opacity="0.060"/>
    <path d="M0.00,43.20 L0.00,43.19 L0.40,43.13 L0.80,43.07 L1.20,43.03 L1.60,42.99 L2.00,42.96 L2.40,42.95 L2.80,42.95 L3.20,42.96 L3.60,42.98 L4.00,43.01 L4.40,43.05 L4.80,43.09 L5.20,43.13 L5.60,43.18 L6.00,43.23 L6.40,43.27 L6.80,43.30 L7.20,43.32 L7.60,43.34 L8.00,43.34 L8.40,43.33 L8.80,43.30 L9.20,43.27 L9.60,43.23 L10.00,43.18 L10.40,43.13 L10.80,43.08 L11.20,43.02 L11.60,42.95 L12.00,42.88 L12.40,42.81 L12.80,42.74 L13.20,42.68 L13.60,42.62 L14.00,42.57 L14.40,42.54 L14.80,42.52 L15.20,42.52 L15.60,42.53 L16.00,42.56 L16.40,42.60 L16.80,42.66 L17.20,42.72 L17.60,42.79 L18.00,42.87 L18.40,42.94 L18.80,43.02 L19.20,43.09 L19.60,43.15 L20.00,43.21 L20.40,43.27 L20.80,43.33 L21.20,43.40 L21.60,43.47 L22.00,43.53 L22.40,43.60 L22.80,43.66 L23.20,43.71 L23.60,43.75 L24.00,43.78 L24.40,43.80 L24.80,43.80 L25.20,43.78 L25.60,43.76 L26.00,43.72 L26.40,43.66 L26.80,43.61 L27.20,43.54 L27.60,43.48 L28.00,43.41 L28.40,43.35 L28.80,43.30 L29.20,43.25 L29.60,43.21 L30.00,43.17 L30.40,43.14 L30.80,43.10 L31.20,43.06 L31.60,43.03 L32.00,42.99 L32.40,42.95 L32.80,42.92 L33.20,42.90 L33.60,42.88 L34.00,42.86 L34.40,42.86 L34.80,42.86 L35.20,42.87 L35.60,42.88 L36.00,42.90 L36.40,42.93 L36.80,42.96 L37.20,43.00 L37.60,43.03 L38.00,43.06 L38.40,43.09 L38.80,43.12 L39.20,43.14 L39.60,43.15 L40.00,43.17 L40.40,43.18 L40.80,43.19 L41.20,43.19 L41.60,43.18 L42.00,43.17 L42.40,43.14 L42.80,43.11 L43.20,43.07 L43.60,43.03 L44.00,42.99 L44.40,42.95 L44.80,42.91 L45.20,42.88 L45.60,42.86 L46.00,42.85 L46.40,42.85 L46.80,42.85 L47.20,42.87 L47.60,42.90 L48.00,42.94 L48.40,42.98 L48.80,43.03 L49.20,43.09 L49.60,43.15 L50.00,43.21 L50.40,43.27 L50.80,43.33 L51.20,43.39 L51.60,43.44 L52.00,43.49 L52.40,43.53 L52.80,43.56 L53.20,43.59 L53.60,43.60 L54.00,43.60 L54.40,43.59 L54.80,43.57 L55.20,43.53 L55.60,43.50 L56.00,43.45 L56.40,43.40 L56.80,43.35 L57.20,43.31 L57.60,43.26 L58.00,43.23 L58.40,43.20 L58.80,43.18 L59.20,43.17 L59.60,43.17 L60.00,43.17 L60.40,43.17 L60.80,43.18 L61.20,43.19 L61.60,43.21 L62.00,43.23 L62.40,43.26 L62.80,43.29 L63.20,43.33 L63.60,43.36 L64.00,43.40 L64.40,43.42 L64.80,43.45 L65.20,43.47 L65.60,43.48 L66.00,43.48 L66.40,43.48 L66.80,43.46 L67.20,43.44 L67.60,43.41 L68.00,43.38 L68.40,43.34 L68.80,43.30 L69.20,43.26 L69.60,43.22" fill="none" stroke="#2c261e" stroke-width="0.036" opacity="0.060"/>
    <path d="M0.00,45.60 L0.00,45.58 L0.40,45.53 L0.80,45.47 L1.20,45.42 L1.60,45.38 L2.00,45.35 L2.40,45.33 L2.80,45.32 L3.20,45.31 L3.60,45.32 L4.00,45.33 L4.40,45.36 L4.80,45.38 L5.20,45.41 L5.60,45.45 L6.00,45.48 L6.40,45.51 L6.80,45.54 L7.20,45.56 L7.60,45.57 L8.00,45.57 L8.40,45.57 L8.80,45.55 L9.20,45.52 L9.60,45.49 L10.00,45.45 L10.40,45.42 L10.80,45.38 L11.20,45.33 L11.60,45.28 L12.00,45.24 L12.40,45.19 L12.80,45.15 L13.20,45.11 L13.60,45.08 L14.00,45.06 L14.40,45.05 L14.80,45.06 L15.20,45.08 L15.60,45.12 L16.00,45.17 L16.40,45.23 L16.80,45.29 L17.20,45.37 L17.60,45.45 L18.00,45.52 L18.40,45.60 L18.80,45.67 L19.20,45.74 L19.60,45.80 L20.00,45.85 L20.40,45.91 L20.80,45.96 L21.20,46.02 L21.60,46.07 L22.00,46.11 L22.40,46.15 L22.80,46.18 L23.20,46.20 L23.60,46.20 L24.00,46.19 L24.40,46.17 L24.80,46.13 L25.20,46.08 L25.60,46.02 L26.00,45.95 L26.40,45.87 L26.80,45.80 L27.20,45.72 L27.60,45.64 L28.00,45.57 L28.40,45.51 L28.80,45.46 L29.20,45.42 L29.60,45.39 L30.00,45.36 L30.40,45.33 L30.80,45.31 L31.20,45.28 L31.60,45.26 L32.00,45.23 L32.40,45.21 L32.80,45.19 L33.20,45.17 L33.60,45.16 L34.00,45.15 L34.40,45.14 L34.80,45.14 L35.20,45.15 L35.60,45.16 L36.00,45.17 L36.40,45.19 L36.80,45.21 L37.20,45.23 L37.60,45.26 L38.00,45.28 L38.40,45.30 L38.80,45.31 L39.20,45.32 L39.60,45.33 L40.00,45.34 L40.40,45.35 L40.80,45.35 L41.20,45.35 L41.60,45.34 L42.00,45.33 L42.40,45.30 L42.80,45.28 L43.20,45.25 L43.60,45.23 L44.00,45.20 L44.40,45.18 L44.80,45.16 L45.20,45.16 L45.60,45.16 L46.00,45.16 L46.40,45.18 L46.80,45.21 L47.20,45.24 L47.60,45.29 L48.00,45.34 L48.40,45.39 L48.80,45.45 L49.20,45.50 L49.60,45.56 L50.00,45.62 L50.40,45.68 L50.80,45.74 L51.20,45.80 L51.60,45.85 L52.00,45.89 L52.40,45.92 L52.80,45.95 L53.20,45.96 L53.60,45.96 L54.00,45.95 L54.40,45.92 L54.80,45.89 L55.20,45.84 L55.60,45.79 L56.00,45.73 L56.40,45.66 L56.80,45.60 L57.20,45.54 L57.60,45.49 L58.00,45.44 L58.40,45.41 L58.80,45.38 L59.20,45.36 L59.60,45.36 L60.00,45.36 L60.40,45.36 L60.80,45.36 L61.20,45.36 L61.60,45.38 L62.00,45.39 L62.40,45.41 L62.80,45.43 L63.20,45.45 L63.60,45.47 L64.00,45.49 L64.40,45.50 L64.80,45.51 L65.20,45.52 L65.60,45.52 L66.00,45.51 L66.40,45.49 L66.80,45.47 L67.20,45.45 L67.60,45.42 L68.00,45.39 L68.40,45.35 L68.80,45.31 L69.20,45.27 L69.60,45.23" fill="none" stroke="#2c261e" stroke-width="0.036" opacity="0.060"/>
    <path d="M0.00,48.00 L0.00,48.20 L0.40,48.15 L0.80,48.11 L1.20,48.06 L1.60,48.02 L2.00,47.97 L2.40,47.93 L2.80,47.90 L3.20,47.87 L3.60,47.85 L4.00,47.84 L4.40,47.83 L4.80,47.83 L5.20,47.84 L5.60,47.85 L6.00,47.87 L6.40,47.90 L6.80,47.92 L7.20,47.95 L7.60,47.97 L8.00,47.99 L8.40,48.01 L8.80,48.02 L9.20,48.02 L9.60,48.03 L10.00,48.03 L10.40,48.02 L10.80,48.02 L11.20,48.01 L11.60,48.01 L12.00,48.00 L12.40,47.99 L12.80,47.98 L13.20,47.98 L13.60,47.98 L14.00,47.98 L14.40,47.99 L14.80,48.01 L15.20,48.03 L15.60,48.05 L16.00,48.09 L16.40,48.12 L16.80,48.16 L17.20,48.21 L17.60,48.26 L18.00,48.30 L18.40,48.35 L18.80,48.39 L19.20,48.44 L19.60,48.48 L20.00,48.52 L20.40,48.55 L20.80,48.59 L21.20,48.62 L21.60,48.64 L22.00,48.65 L22.40,48.65 L22.80,48.64 L23.20,48.61 L23.60,48.57 L24.00,48.53 L24.40,48.47 L24.80,48.40 L25.20,48.33 L25.60,48.26 L26.00,48.19 L26.40,48.11 L26.80,48.05 L27.20,47.99 L27.60,47.94 L28.00,47.90 L28.40,47.87 L28.80,47.85 L29.20,47.85 L29.60,47.85 L30.00,47.86 L30.40,47.87 L30.80,47.89 L31.20,47.90 L31.60,47.91 L32.00,47.93 L32.40,47.95 L32.80,47.97 L33.20,47.98 L33.60,48.00 L34.00,48.01 L34.40,48.03 L34.80,48.03 L35.20,48.04 L35.60,48.04 L36.00,48.04 L36.40,48.03 L36.80,48.02 L37.20,48.01 L37.60,48.00 L38.00,47.98 L38.40,47.97 L38.80,47.95 L39.20,47.94 L39.60,47.92 L40.00,47.91 L40.40,47.89 L40.80,47.87 L41.20,47.85 L41.60,47.81 L42.00,47.77 L42.40,47.73 L42.80,47.68 L43.20,47.63 L43.60,47.58 L44.00,47.53 L44.40,47.49 L44.80,47.46 L45.20,47.44 L45.60,47.43 L46.00,47.43 L46.40,47.45 L46.80,47.47 L47.20,47.50 L47.60,47.54 L48.00,47.59 L48.40,47.64 L48.80,47.69 L49.20,47.75 L49.60,47.80 L50.00,47.86 L50.40,47.91 L50.80,47.97 L51.20,48.03 L51.60,48.08 L52.00,48.14 L52.40,48.19 L52.80,48.23 L53.20,48.27 L53.60,48.30 L54.00,48.32 L54.40,48.33 L54.80,48.33 L55.20,48.32 L55.60,48.30 L56.00,48.27 L56.40,48.24 L56.80,48.20 L57.20,48.16 L57.60,48.12 L58.00,48.08 L58.40,48.04 L58.80,48.02 L59.20,47.99 L59.60,47.98 L60.00,47.97 L60.40,47.95 L60.80,47.94 L61.20,47.93 L61.60,47.92 L62.00,47.90 L62.40,47.89 L62.80,47.87 L63.20,47.85 L63.60,47.83 L64.00,47.80 L64.40,47.77 L64.80,47.74 L65.20,47.71 L65.60,47.67 L66.00,47.64 L66.40,47.60 L66.80,47.56 L67.20,47.52 L67.60,47.49 L68.00,47.45 L68.40,47.42 L68.80,47.39 L69.20,47.36 L69.60,47.33" fill="none" stroke="#2c261e" stroke-width="0.036" opacity="0.060"/>
    <path d="M0.00,50.40 L0.00,50.67 L0.40,50.63 L0.80,50.59 L1.20,50.55 L1.60,50.50 L2.00,50.46 L2.40,50.41 L2.80,50.36 L3.20,50.31 L3.60,50.27 L4.00,50.24 L4.40,50.21 L4.80,50.19 L5.20,50.19 L5.60,50.19 L6.00,50.21 L6.40,50.23 L6.80,50.26 L7.20,50.30 L7.60,50.34 L8.00,50.38 L8.40,50.43 L8.80,50.47 L9.20,50.51 L9.60,50.54 L10.00,50.58 L10.40,50.61 L10.80,50.64 L11.20,50.67 L11.60,50.70 L12.00,50.72 L12.40,50.74 L12.80,50.76 L13.20,50.76 L13.60,50.77 L14.00,50.77 L14.40,50.77 L14.80,50.76 L15.20,50.75 L15.60,50.75 L16.00,50.74 L16.40,50.73 L16.80,50.72 L17.20,50.72 L17.60,50.72 L18.00,50.72 L18.40,50.73 L18.80,50.74 L19.20,50.76 L19.60,50.78 L20.00,50.80 L20.40,50.82 L20.80,50.84 L21.20,50.85 L21.60,50.84 L22.00,50.83 L22.40,50.81 L22.80,50.78 L23.20,50.73 L23.60,50.68 L24.00,50.63 L24.40,50.57 L24.80,50.52 L25.20,50.46 L25.60,50.41 L26.00,50.37 L26.40,50.33 L26.80,50.31 L27.20,50.29 L27.60,50.29 L28.00,50.30 L28.40,50.32 L28.80,50.35 L29.20,50.38 L29.60,50.42 L30.00,50.47 L30.40,50.51 L30.80,50.56 L31.20,50.61 L31.60,50.67 L32.00,50.73 L32.40,50.79 L32.80,50.84 L33.20,50.89 L33.60,50.94 L34.00,50.97 L34.40,51.00 L34.80,51.01 L35.20,51.01 L35.60,51.00 L36.00,50.98 L36.40,50.95 L36.80,50.91 L37.20,50.86 L37.60,50.81 L38.00,50.76 L38.40,50.71 L38.80,50.66 L39.20,50.62 L39.60,50.58 L40.00,50.54 L40.40,50.50 L40.80,50.46 L41.20,50.41 L41.60,50.36 L42.00,50.29 L42.40,50.22 L42.80,50.15 L43.20,50.08 L43.60,50.01 L44.00,49.95 L44.40,49.89 L44.80,49.85 L45.20,49.82 L45.60,49.80 L46.00,49.79 L46.40,49.80 L46.80,49.82 L47.20,49.86 L47.60,49.90 L48.00,49.94 L48.40,49.99 L48.80,50.05 L49.20,50.10 L49.60,50.15 L50.00,50.20 L50.40,50.25 L50.80,50.30 L51.20,50.36 L51.60,50.42 L52.00,50.48 L52.40,50.55 L52.80,50.61 L53.20,50.67 L53.60,50.73 L54.00,50.78 L54.40,50.81 L54.80,50.84 L55.20,50.86 L55.60,50.87 L56.00,50.87 L56.40,50.85 L56.80,50.83 L57.20,50.81 L57.60,50.78 L58.00,50.74 L58.40,50.71 L58.80,50.68 L59.20,50.65 L59.60,50.62 L60.00,50.60 L60.40,50.58 L60.80,50.55 L61.20,50.53 L61.60,50.50 L62.00,50.47 L62.40,50.44 L62.80,50.40 L63.20,50.37 L63.60,50.33 L64.00,50.29 L64.40,50.26 L64.80,50.22 L65.20,50.18 L65.60,50.15 L66.00,50.12 L66.40,50.09 L66.80,50.07 L67.20,50.04 L67.60,50.02 L68.00,50.00 L68.40,49.99 L68.80,49.97 L69.20,49.96 L69.60,49.95" fill="none" stroke="#2c261e" stroke-width="0.036" opacity="0.060"/>
    <path d="M0.00,52.80 L0.00,52.83 L0.40,52.79 L0.80,52.76 L1.20,52.72 L1.60,52.67 L2.00,52.62 L2.40,52.57 L2.80,52.52 L3.20,52.47 L3.60,52.43 L4.00,52.39 L4.40,52.37 L4.80,52.35 L5.20,52.35 L5.60,52.35 L6.00,52.37 L6.40,52.40 L6.80,52.43 L7.20,52.48 L7.60,52.53 L8.00,52.58 L8.40,52.63 L8.80,52.68 L9.20,52.73 L9.60,52.78 L10.00,52.82 L10.40,52.87 L10.80,52.91 L11.20,52.95 L11.60,52.98 L12.00,53.01 L12.40,53.03 L12.80,53.05 L13.20,53.05 L13.60,53.05 L14.00,53.04 L14.40,53.03 L14.80,53.01 L15.20,52.98 L15.60,52.95 L16.00,52.92 L16.40,52.89 L16.80,52.86 L17.20,52.83 L17.60,52.81 L18.00,52.80 L18.40,52.79 L18.80,52.79 L19.20,52.80 L19.60,52.81 L20.00,52.83 L20.40,52.85 L20.80,52.86 L21.20,52.86 L21.60,52.86 L22.00,52.85 L22.40,52.83 L22.80,52.80 L23.20,52.76 L23.60,52.72 L24.00,52.68 L24.40,52.64 L24.80,52.60 L25.20,52.57 L25.60,52.54 L26.00,52.52 L26.40,52.51 L26.80,52.51 L27.20,52.52 L27.60,52.54 L28.00,52.57 L28.40,52.61 L28.80,52.66 L29.20,52.71 L29.60,52.76 L30.00,52.82 L30.40,52.87 L30.80,52.93 L31.20,52.99 L31.60,53.06 L32.00,53.13 L32.40,53.20 L32.80,53.26 L33.20,53.32 L33.60,53.37 L34.00,53.40 L34.40,53.43 L34.80,53.44 L35.20,53.43 L35.60,53.41 L36.00,53.38 L36.40,53.33 L36.80,53.28 L37.20,53.22 L37.60,53.16 L38.00,53.09 L38.40,53.03 L38.80,52.97 L39.20,52.91 L39.60,52.87 L40.00,52.82 L40.40,52.78 L40.80,52.73 L41.20,52.68 L41.60,52.62 L42.00,52.56 L42.40,52.50 L42.80,52.44 L43.20,52.38 L43.60,52.33 L44.00,52.29 L44.40,52.25 L44.80,52.24 L45.20,52.23 L45.60,52.24 L46.00,52.26 L46.40,52.29 L46.80,52.34 L47.20,52.39 L47.60,52.44 L48.00,52.50 L48.40,52.56 L48.80,52.62 L49.20,52.68 L49.60,52.73 L50.00,52.78 L50.40,52.83 L50.80,52.88 L51.20,52.93 L51.60,52.99 L52.00,53.04 L52.40,53.09 L52.80,53.14 L53.20,53.19 L53.60,53.22 L54.00,53.25 L54.40,53.27 L54.80,53.27 L55.20,53.27 L55.60,53.25 L56.00,53.22 L56.40,53.19 L56.80,53.15 L57.20,53.10 L57.60,53.05 L58.00,53.01 L58.40,52.96 L58.80,52.92 L59.20,52.89 L59.60,52.86 L60.00,52.83 L60.40,52.80 L60.80,52.78 L61.20,52.75 L61.60,52.73 L62.00,52.71 L62.40,52.70 L62.80,52.68 L63.20,52.68 L63.60,52.67 L64.00,52.67 L64.40,52.67 L64.80,52.68 L65.20,52.69 L65.60,52.71 L66.00,52.72 L66.40,52.73 L66.80,52.75 L67.20,52.76 L67.60,52.77 L68.00,52.78 L68.40,52.78 L68.80,52.79 L69.20,52.78 L69.60,52.78" fill="none" stroke="#2c261e" stroke-width="0.036" opacity="0.060"/>
    <path d="M0.00,55.20 L0.00,55.01 L0.40,54.98 L0.80,54.95 L1.20,54.91 L1.60,54.87 L2.00,54.82 L2.40,54.78 L2.80,54.73 L3.20,54.69 L3.60,54.65 L4.00,54.62 L4.40,54.60 L4.80,54.59 L5.20,54.59 L5.60,54.60 L6.00,54.62 L6.40,54.65 L6.80,54.69 L7.20,54.73 L7.60,54.78 L8.00,54.83 L8.40,54.88 L8.80,54.93 L9.20,54.97 L9.60,55.02 L10.00,55.06 L10.40,55.10 L10.80,55.14 L11.20,55.17 L11.60,55.20 L12.00,55.22 L12.40,55.24 L12.80,55.25 L13.20,55.25 L13.60,55.24 L14.00,55.22 L14.40,55.19 L14.80,55.16 L15.20,55.12 L15.60,55.08 L16.00,55.04 L16.40,55.00 L16.80,54.96 L17.20,54.92 L17.60,54.89 L18.00,54.87 L18.40,54.85 L18.80,54.85 L19.20,54.85 L19.60,54.85 L20.00,54.86 L20.40,54.88 L20.80,54.88 L21.20,54.89 L21.60,54.88 L22.00,54.88 L22.40,54.86 L22.80,54.84 L23.20,54.82 L23.60,54.80 L24.00,54.78 L24.40,54.76 L24.80,54.75 L25.20,54.74 L25.60,54.73 L26.00,54.73 L26.40,54.74 L26.80,54.76 L27.20,54.78 L27.60,54.81 L28.00,54.84 L28.40,54.88 L28.80,54.92 L29.20,54.97 L29.60,55.01 L30.00,55.06 L30.40,55.11 L30.80,55.16 L31.20,55.21 L31.60,55.26 L32.00,55.32 L32.40,55.37 L32.80,55.42 L33.20,55.46 L33.60,55.49 L34.00,55.51 L34.40,55.52 L34.80,55.52 L35.20,55.50 L35.60,55.47 L36.00,55.43 L36.40,55.38 L36.80,55.32 L37.20,55.25 L37.60,55.19 L38.00,55.12 L38.40,55.06 L38.80,55.00 L39.20,54.95 L39.60,54.91 L40.00,54.87 L40.40,54.83 L40.80,54.78 L41.20,54.74 L41.60,54.70 L42.00,54.65 L42.40,54.61 L42.80,54.58 L43.20,54.56 L43.60,54.54 L44.00,54.54 L44.40,54.55 L44.80,54.58 L45.20,54.62 L45.60,54.67 L46.00,54.73 L46.40,54.80 L46.80,54.88 L47.20,54.97 L47.60,55.05 L48.00,55.13 L48.40,55.21 L48.80,55.28 L49.20,55.34 L49.60,55.39 L50.00,55.44 L50.40,55.49 L50.80,55.54 L51.20,55.59 L51.60,55.64 L52.00,55.68 L52.40,55.71 L52.80,55.74 L53.20,55.76 L53.60,55.76 L54.00,55.75 L54.40,55.73 L54.80,55.70 L55.20,55.66 L55.60,55.60 L56.00,55.54 L56.40,55.47 L56.80,55.40 L57.20,55.33 L57.60,55.26 L58.00,55.19 L58.40,55.14 L58.80,55.09 L59.20,55.05 L59.60,55.02 L60.00,55.00 L60.40,54.97 L60.80,54.95 L61.20,54.93 L61.60,54.92 L62.00,54.92 L62.40,54.93 L62.80,54.94 L63.20,54.97 L63.60,55.00 L64.00,55.04 L64.40,55.08 L64.80,55.13 L65.20,55.19 L65.60,55.24 L66.00,55.29 L66.40,55.34 L66.80,55.39 L67.20,55.43 L67.60,55.46 L68.00,55.48 L68.40,55.50 L68.80,55.50 L69.20,55.50 L69.60,55.49" fill="none" stroke="#2c261e" stroke-width="0.036" opacity="0.060"/>
    <path d="M0.00,57.60 L0.00,57.60 L0.40,57.58 L0.80,57.56 L1.20,57.53 L1.60,57.51 L2.00,57.48 L2.40,57.45 L2.80,57.42 L3.20,57.40 L3.60,57.38 L4.00,57.36 L4.40,57.35 L4.80,57.35 L5.20,57.35 L5.60,57.36 L6.00,57.37 L6.40,57.40 L6.80,57.42 L7.20,57.45 L7.60,57.48 L8.00,57.52 L8.40,57.55 L8.80,57.58 L9.20,57.61 L9.60,57.64 L10.00,57.66 L10.40,57.69 L10.80,57.71 L11.20,57.73 L11.60,57.75 L12.00,57.76 L12.40,57.77 L12.80,57.78 L13.20,57.77 L13.60,57.76 L14.00,57.73 L14.40,57.70 L14.80,57.66 L15.20,57.62 L15.60,57.57 L16.00,57.51 L16.40,57.46 L16.80,57.40 L17.20,57.34 L17.60,57.29 L18.00,57.25 L18.40,57.21 L18.80,57.17 L19.20,57.15 L19.60,57.12 L20.00,57.11 L20.40,57.09 L20.80,57.08 L21.20,57.06 L21.60,57.05 L22.00,57.04 L22.40,57.04 L22.80,57.04 L23.20,57.05 L23.60,57.07 L24.00,57.08 L24.40,57.11 L24.80,57.14 L25.20,57.17 L25.60,57.20 L26.00,57.24 L26.40,57.28 L26.80,57.31 L27.20,57.35 L27.60,57.38 L28.00,57.41 L28.40,57.43 L28.80,57.44 L29.20,57.46 L29.60,57.47 L30.00,57.47 L30.40,57.48 L30.80,57.48 L31.20,57.49 L31.60,57.49 L32.00,57.50 L32.40,57.50 L32.80,57.50 L33.20,57.49 L33.60,57.48 L34.00,57.47 L34.40,57.45 L34.80,57.42 L35.20,57.39 L35.60,57.35 L36.00,57.31 L36.40,57.27 L36.80,57.23 L37.20,57.18 L37.60,57.14 L38.00,57.09 L38.40,57.05 L38.80,57.01 L39.20,56.98 L39.60,56.95 L40.00,56.92 L40.40,56.89 L40.80,56.87 L41.20,56.84 L41.60,56.81 L42.00,56.79 L42.40,56.77 L42.80,56.77 L43.20,56.77 L43.60,56.79 L44.00,56.82 L44.40,56.86 L44.80,56.92 L45.20,56.98 L45.60,57.07 L46.00,57.16 L46.40,57.25 L46.80,57.35 L47.20,57.46 L47.60,57.55 L48.00,57.65 L48.40,57.74 L48.80,57.81 L49.20,57.88 L49.60,57.94 L50.00,58.00 L50.40,58.05 L50.80,58.10 L51.20,58.15 L51.60,58.20 L52.00,58.24 L52.40,58.28 L52.80,58.30 L53.20,58.32 L53.60,58.32 L54.00,58.31 L54.40,58.28 L54.80,58.25 L55.20,58.20 L55.60,58.14 L56.00,58.08 L56.40,58.01 L56.80,57.94 L57.20,57.87 L57.60,57.80 L58.00,57.74 L58.40,57.69 L58.80,57.65 L59.20,57.62 L59.60,57.60 L60.00,57.58 L60.40,57.57 L60.80,57.55 L61.20,57.55 L61.60,57.55 L62.00,57.55 L62.40,57.57 L62.80,57.59 L63.20,57.62 L63.60,57.66 L64.00,57.69 L64.40,57.73 L64.80,57.78 L65.20,57.82 L65.60,57.85 L66.00,57.89 L66.40,57.91 L66.80,57.93 L67.20,57.95 L67.60,57.96 L68.00,57.95 L68.40,57.94 L68.80,57.93 L69.20,57.91 L69.60,57.88" fill="none" stroke="#2c261e" stroke-width="0.036" opacity="0.060"/>
    <path d="M0.00,60.00 L0.00,60.24 L0.40,60.23 L0.80,60.22 L1.20,60.21 L1.60,60.20 L2.00,60.19 L2.40,60.18 L2.80,60.18 L3.20,60.17 L3.60,60.16 L4.00,60.16 L4.40,60.16 L4.80,60.16 L5.20,60.16 L5.60,60.17 L6.00,60.17 L6.40,60.18 L6.80,60.19 L7.20,60.20 L7.60,60.22 L8.00,60.23 L8.40,60.24 L8.80,60.25 L9.20,60.26 L9.60,60.26 L10.00,60.27 L10.40,60.28 L10.80,60.28 L11.20,60.30 L11.60,60.31 L12.00,60.32 L12.40,60.34 L12.80,60.36 L13.20,60.37 L13.60,60.37 L14.00,60.38 L14.40,60.37 L14.80,60.36 L15.20,60.34 L15.60,60.31 L16.00,60.27 L16.40,60.22 L16.80,60.17 L17.20,60.12 L17.60,60.06 L18.00,60.00 L18.40,59.94 L18.80,59.89 L19.20,59.83 L19.60,59.78 L20.00,59.73 L20.40,59.68 L20.80,59.64 L21.20,59.60 L21.60,59.58 L22.00,59.56 L22.40,59.56 L22.80,59.58 L23.20,59.60 L23.60,59.64 L24.00,59.68 L24.40,59.74 L24.80,59.80 L25.20,59.86 L25.60,59.92 L26.00,59.97 L26.40,60.02 L26.80,60.07 L27.20,60.10 L27.60,60.12 L28.00,60.13 L28.40,60.12 L28.80,60.10 L29.20,60.08 L29.60,60.04 L30.00,60.00 L30.40,59.95 L30.80,59.91 L31.20,59.87 L31.60,59.82 L32.00,59.78 L32.40,59.74 L32.80,59.70 L33.20,59.66 L33.60,59.63 L34.00,59.60 L34.40,59.58 L34.80,59.56 L35.20,59.54 L35.60,59.53 L36.00,59.52 L36.40,59.52 L36.80,59.52 L37.20,59.52 L37.60,59.51 L38.00,59.51 L38.40,59.51 L38.80,59.50 L39.20,59.49 L39.60,59.48 L40.00,59.47 L40.40,59.45 L40.80,59.44 L41.20,59.42 L41.60,59.40 L42.00,59.38 L42.40,59.36 L42.80,59.34 L43.20,59.34 L43.60,59.33 L44.00,59.34 L44.40,59.36 L44.80,59.39 L45.20,59.43 L45.60,59.48 L46.00,59.54 L46.40,59.60 L46.80,59.68 L47.20,59.75 L47.60,59.83 L48.00,59.91 L48.40,59.99 L48.80,60.06 L49.20,60.13 L49.60,60.19 L50.00,60.25 L50.40,60.31 L50.80,60.37 L51.20,60.43 L51.60,60.48 L52.00,60.53 L52.40,60.58 L52.80,60.62 L53.20,60.65 L53.60,60.67 L54.00,60.68 L54.40,60.67 L54.80,60.66 L55.20,60.64 L55.60,60.60 L56.00,60.56 L56.40,60.52 L56.80,60.47 L57.20,60.42 L57.60,60.38 L58.00,60.33 L58.40,60.30 L58.80,60.27 L59.20,60.25 L59.60,60.24 L60.00,60.23 L60.40,60.23 L60.80,60.23 L61.20,60.23 L61.60,60.23 L62.00,60.25 L62.40,60.26 L62.80,60.28 L63.20,60.31 L63.60,60.33 L64.00,60.35 L64.40,60.36 L64.80,60.38 L65.20,60.38 L65.60,60.38 L66.00,60.38 L66.40,60.36 L66.80,60.34 L67.20,60.31 L67.60,60.27 L68.00,60.23 L68.40,60.19 L68.80,60.14 L69.20,60.10 L69.60,60.05" fill="none" stroke="#2c261e" stroke-width="0.036" opacity="0.060"/>
    <path d="M0.00,62.40 L0.00,62.49 L0.40,62.49 L0.80,62.48 L1.20,62.48 L1.60,62.47 L2.00,62.47 L2.40,62.47 L2.80,62.47 L3.20,62.46 L3.60,62.46 L4.00,62.46 L4.40,62.47 L4.80,62.47 L5.20,62.47 L5.60,62.47 L6.00,62.48 L6.40,62.48 L6.80,62.48 L7.20,62.49 L7.60,62.49 L8.00,62.49 L8.40,62.49 L8.80,62.49 L9.20,62.49 L9.60,62.49 L10.00,62.49 L10.40,62.49 L10.80,62.50 L11.20,62.51 L11.60,62.53 L12.00,62.55 L12.40,62.59 L12.80,62.63 L13.20,62.67 L13.60,62.71 L14.00,62.75 L14.40,62.78 L14.80,62.81 L15.20,62.82 L15.60,62.83 L16.00,62.83 L16.40,62.82 L16.80,62.80 L17.20,62.76 L17.60,62.72 L18.00,62.67 L18.40,62.62 L18.80,62.56 L19.20,62.50 L19.60,62.44 L20.00,62.37 L20.40,62.31 L20.80,62.26 L21.20,62.21 L21.60,62.18 L22.00,62.16 L22.40,62.15 L22.80,62.16 L23.20,62.18 L23.60,62.22 L24.00,62.26 L24.40,62.31 L24.80,62.37 L25.20,62.43 L25.60,62.48 L26.00,62.53 L26.40,62.58 L26.80,62.61 L27.20,62.64 L27.60,62.64 L28.00,62.64 L28.40,62.62 L28.80,62.58 L29.20,62.54 L29.60,62.48 L30.00,62.42 L30.40,62.36 L30.80,62.30 L31.20,62.24 L31.60,62.18 L32.00,62.13 L32.40,62.08 L32.80,62.05 L33.20,62.02 L33.60,62.00 L34.00,62.00 L34.40,62.00 L34.80,62.01 L35.20,62.04 L35.60,62.07 L36.00,62.10 L36.40,62.14 L36.80,62.18 L37.20,62.21 L37.60,62.25 L38.00,62.28 L38.40,62.30 L38.80,62.31 L39.20,62.31 L39.60,62.31 L40.00,62.30 L40.40,62.29 L40.80,62.28 L41.20,62.26 L41.60,62.23 L42.00,62.20 L42.40,62.16 L42.80,62.12 L43.20,62.08 L43.60,62.04 L44.00,62.00 L44.40,61.97 L44.80,61.95 L45.20,61.93 L45.60,61.93 L46.00,61.94 L46.40,61.96 L46.80,61.99 L47.20,62.03 L47.60,62.08 L48.00,62.13 L48.40,62.19 L48.80,62.25 L49.20,62.31 L49.60,62.37 L50.00,62.43 L50.40,62.49 L50.80,62.55 L51.20,62.61 L51.60,62.67 L52.00,62.72 L52.40,62.77 L52.80,62.81 L53.20,62.85 L53.60,62.87 L54.00,62.88 L54.40,62.88 L54.80,62.87 L55.20,62.85 L55.60,62.82 L56.00,62.78 L56.40,62.74 L56.80,62.70 L57.20,62.65 L57.60,62.61 L58.00,62.57 L58.40,62.54 L58.80,62.52 L59.20,62.50 L59.60,62.50 L60.00,62.49 L60.40,62.49 L60.80,62.49 L61.20,62.50 L61.60,62.52 L62.00,62.54 L62.40,62.57 L62.80,62.60 L63.20,62.63 L63.60,62.67 L64.00,62.70 L64.40,62.73 L64.80,62.75 L65.20,62.77 L65.60,62.78 L66.00,62.78 L66.40,62.76 L66.80,62.74 L67.20,62.71 L67.60,62.68 L68.00,62.63 L68.40,62.58 L68.80,62.53 L69.20,62.47 L69.60,62.42" fill="none" stroke="#2c261e" stroke-width="0.036" opacity="0.060"/>
    <path d="M0.00,64.80 L0.00,64.48 L0.40,64.48 L0.80,64.47 L1.20,64.46 L1.60,64.46 L2.00,64.45 L2.40,64.45 L2.80,64.45 L3.20,64.45 L3.60,64.45 L4.00,64.45 L4.40,64.45 L4.80,64.46 L5.20,64.46 L5.60,64.47 L6.00,64.48 L6.40,64.49 L6.80,64.49 L7.20,64.50 L7.60,64.51 L8.00,64.52 L8.40,64.52 L8.80,64.53 L9.20,64.53 L9.60,64.53 L10.00,64.54 L10.40,64.54 L10.80,64.55 L11.20,64.56 L11.60,64.59 L12.00,64.63 L12.40,64.68 L12.80,64.73 L13.20,64.79 L13.60,64.85 L14.00,64.91 L14.40,64.97 L14.80,65.03 L15.20,65.07 L15.60,65.11 L16.00,65.13 L16.40,65.14 L16.80,65.14 L17.20,65.13 L17.60,65.11 L18.00,65.07 L18.40,65.03 L18.80,64.98 L19.20,64.93 L19.60,64.87 L20.00,64.81 L20.40,64.75 L20.80,64.70 L21.20,64.66 L21.60,64.62 L22.00,64.60 L22.40,64.59 L22.80,64.59 L23.20,64.61 L23.60,64.63 L24.00,64.67 L24.40,64.71 L24.80,64.75 L25.20,64.80 L25.60,64.84 L26.00,64.88 L26.40,64.92 L26.80,64.95 L27.20,64.96 L27.60,64.97 L28.00,64.96 L28.40,64.94 L28.80,64.91 L29.20,64.86 L29.60,64.81 L30.00,64.76 L30.40,64.70 L30.80,64.64 L31.20,64.59 L31.60,64.55 L32.00,64.52 L32.40,64.49 L32.80,64.48 L33.20,64.48 L33.60,64.49 L34.00,64.51 L34.40,64.54 L34.80,64.58 L35.20,64.64 L35.60,64.69 L36.00,64.75 L36.40,64.81 L36.80,64.87 L37.20,64.93 L37.60,64.98 L38.00,65.01 L38.40,65.04 L38.80,65.06 L39.20,65.06 L39.60,65.06 L40.00,65.05 L40.40,65.04 L40.80,65.02 L41.20,64.99 L41.60,64.96 L42.00,64.91 L42.40,64.86 L42.80,64.80 L43.20,64.74 L43.60,64.67 L44.00,64.61 L44.40,64.55 L44.80,64.50 L45.20,64.45 L45.60,64.42 L46.00,64.40 L46.40,64.40 L46.80,64.41 L47.20,64.42 L47.60,64.45 L48.00,64.49 L48.40,64.54 L48.80,64.59 L49.20,64.65 L49.60,64.71 L50.00,64.77 L50.40,64.82 L50.80,64.88 L51.20,64.94 L51.60,64.99 L52.00,65.03 L52.40,65.07 L52.80,65.10 L53.20,65.12 L53.60,65.13 L54.00,65.12 L54.40,65.10 L54.80,65.07 L55.20,65.04 L55.60,64.99 L56.00,64.94 L56.40,64.88 L56.80,64.82 L57.20,64.77 L57.60,64.72 L58.00,64.67 L58.40,64.64 L58.80,64.61 L59.20,64.59 L59.60,64.59 L60.00,64.58 L60.40,64.58 L60.80,64.58 L61.20,64.60 L61.60,64.62 L62.00,64.65 L62.40,64.69 L62.80,64.74 L63.20,64.79 L63.60,64.85 L64.00,64.91 L64.40,64.97 L64.80,65.02 L65.20,65.07 L65.60,65.10 L66.00,65.13 L66.40,65.15 L66.80,65.16 L67.20,65.15 L67.60,65.13 L68.00,65.11 L68.40,65.07 L68.80,65.03 L69.20,64.98 L69.60,64.93" fill="none" stroke="#2c261e" stroke-width="0.036" opacity="0.060"/>
    <path d="M0.00,67.20 L0.00,66.52 L0.40,66.50 L0.80,66.48 L1.20,66.46 L1.60,66.45 L2.00,66.43 L2.40,66.41 L2.80,66.40 L3.20,66.39 L3.60,66.39 L4.00,66.40 L4.40,66.41 L4.80,66.42 L5.20,66.44 L5.60,66.47 L6.00,66.50 L6.40,66.54 L6.80,66.58 L7.20,66.62 L7.60,66.66 L8.00,66.69 L8.40,66.73 L8.80,66.76 L9.20,66.79 L9.60,66.81 L10.00,66.83 L10.40,66.86 L10.80,66.88 L11.20,66.91 L11.60,66.94 L12.00,66.98 L12.40,67.02 L12.80,67.06 L13.20,67.11 L13.60,67.15 L14.00,67.18 L14.40,67.21 L14.80,67.24 L15.20,67.26 L15.60,67.26 L16.00,67.26 L16.40,67.26 L16.80,67.24 L17.20,67.22 L17.60,67.19 L18.00,67.16 L18.40,67.13 L18.80,67.10 L19.20,67.06 L19.60,67.03 L20.00,67.00 L20.40,66.97 L20.80,66.94 L21.20,66.91 L21.60,66.89 L22.00,66.88 L22.40,66.88 L22.80,66.88 L23.20,66.89 L23.60,66.91 L24.00,66.93 L24.40,66.96 L24.80,67.00 L25.20,67.03 L25.60,67.07 L26.00,67.11 L26.40,67.14 L26.80,67.17 L27.20,67.20 L27.60,67.22 L28.00,67.23 L28.40,67.24 L28.80,67.23 L29.20,67.22 L29.60,67.21 L30.00,67.19 L30.40,67.17 L30.80,67.16 L31.20,67.15 L31.60,67.14 L32.00,67.15 L32.40,67.16 L32.80,67.18 L33.20,67.21 L33.60,67.24 L34.00,67.28 L34.40,67.32 L34.80,67.36 L35.20,67.40 L35.60,67.44 L36.00,67.47 L36.40,67.51 L36.80,67.53 L37.20,67.55 L37.60,67.56 L38.00,67.56 L38.40,67.56 L38.80,67.55 L39.20,67.53 L39.60,67.51 L40.00,67.48 L40.40,67.46 L40.80,67.43 L41.20,67.39 L41.60,67.35 L42.00,67.30 L42.40,67.25 L42.80,67.20 L43.20,67.15 L43.60,67.10 L44.00,67.06 L44.40,67.02 L44.80,66.99 L45.20,66.97 L45.60,66.97 L46.00,66.97 L46.40,66.99 L46.80,67.01 L47.20,67.05 L47.60,67.09 L48.00,67.13 L48.40,67.18 L48.80,67.23 L49.20,67.28 L49.60,67.33 L50.00,67.37 L50.40,67.42 L50.80,67.46 L51.20,67.50 L51.60,67.54 L52.00,67.57 L52.40,67.60 L52.80,67.61 L53.20,67.62 L53.60,67.61 L54.00,67.60 L54.40,67.57 L54.80,67.54 L55.20,67.50 L55.60,67.45 L56.00,67.40 L56.40,67.35 L56.80,67.30 L57.20,67.25 L57.60,67.20 L58.00,67.16 L58.40,67.13 L58.80,67.11 L59.20,67.10 L59.60,67.09 L60.00,67.09 L60.40,67.09 L60.80,67.09 L61.20,67.10 L61.60,67.11 L62.00,67.12 L62.40,67.13 L62.80,67.15 L63.20,67.17 L63.60,67.19 L64.00,67.21 L64.40,67.23 L64.80,67.25 L65.20,67.26 L65.60,67.27 L66.00,67.28 L66.40,67.28 L66.80,67.28 L67.20,67.27 L67.60,67.26 L68.00,67.24 L68.40,67.22 L68.80,67.20 L69.20,67.18 L69.60,67.15" fill="none" stroke="#2c261e" stroke-width="0.036" opacity="0.060"/>
    <path d="M0.00,69.60 L0.00,69.05 L0.40,69.01 L0.80,68.98 L1.20,68.94 L1.60,68.90 L2.00,68.86 L2.40,68.82 L2.80,68.78 L3.20,68.75 L3.60,68.73 L4.00,68.72 L4.40,68.72 L4.80,68.73 L5.20,68.75 L5.60,68.79 L6.00,68.84 L6.40,68.89 L6.80,68.96 L7.20,69.03 L7.60,69.10 L8.00,69.17 L8.40,69.23 L8.80,69.30 L9.20,69.36 L9.60,69.41 L10.00,69.46 L10.40,69.51 L10.80,69.55 L11.20,69.60 L11.60,69.64 L12.00,69.67 L12.40,69.69 L12.80,69.71 L13.20,69.72 L13.60,69.72 L14.00,69.70 L14.40,69.68 L14.80,69.65 L15.20,69.61 L15.60,69.57 L16.00,69.52 L16.40,69.47 L16.80,69.42 L17.20,69.38 L17.60,69.34 L18.00,69.30 L18.40,69.28 L18.80,69.26 L19.20,69.26 L19.60,69.26 L20.00,69.26 L20.40,69.27 L20.80,69.27 L21.20,69.27 L21.60,69.27 L22.00,69.27 L22.40,69.27 L22.80,69.26 L23.20,69.26 L23.60,69.26 L24.00,69.26 L24.40,69.26 L24.80,69.27 L25.20,69.28 L25.60,69.30 L26.00,69.32 L26.40,69.35 L26.80,69.38 L27.20,69.41 L27.60,69.44 L28.00,69.48 L28.40,69.52 L28.80,69.55 L29.20,69.59 L29.60,69.62 L30.00,69.66 L30.40,69.69 L30.80,69.73 L31.20,69.78 L31.60,69.82 L32.00,69.87 L32.40,69.93 L32.80,69.98 L33.20,70.03 L33.60,70.07 L34.00,70.11 L34.40,70.13 L34.80,70.15 L35.20,70.15 L35.60,70.14 L36.00,70.12 L36.40,70.09 L36.80,70.05 L37.20,70.00 L37.60,69.95 L38.00,69.90 L38.40,69.84 L38.80,69.78 L39.20,69.73 L39.60,69.68 L40.00,69.64 L40.40,69.59 L40.80,69.54 L41.20,69.49 L41.60,69.45 L42.00,69.40 L42.40,69.36 L42.80,69.33 L43.20,69.30 L43.60,69.29 L44.00,69.28 L44.40,69.29 L44.80,69.31 L45.20,69.34 L45.60,69.38 L46.00,69.43 L46.40,69.48 L46.80,69.54 L47.20,69.61 L47.60,69.67 L48.00,69.73 L48.40,69.78 L48.80,69.83 L49.20,69.87 L49.60,69.90 L50.00,69.93 L50.40,69.96 L50.80,69.99 L51.20,70.01 L51.60,70.03 L52.00,70.05 L52.40,70.07 L52.80,70.07 L53.20,70.08 L53.60,70.08 L54.00,70.07 L54.40,70.05 L54.80,70.03 L55.20,70.01 L55.60,69.98 L56.00,69.96 L56.40,69.93 L56.80,69.90 L57.20,69.87 L57.60,69.84 L58.00,69.82 L58.40,69.81 L58.80,69.80 L59.20,69.79 L59.60,69.79 L60.00,69.79 L60.40,69.79 L60.80,69.79 L61.20,69.79 L61.60,69.77 L62.00,69.76 L62.40,69.73 L62.80,69.70 L63.20,69.67 L63.60,69.63 L64.00,69.59 L64.40,69.55 L64.80,69.51 L65.20,69.47 L65.60,69.43 L66.00,69.39 L66.40,69.37 L66.80,69.34 L67.20,69.33 L67.60,69.31 L68.00,69.31 L68.40,69.31 L68.80,69.32 L69.20,69.33 L69.60,69.34" fill="none" stroke="#2c261e" stroke-width="0.036" opacity="0.060"/>
  </g>
</svg>